<svg id="svg" version="1.1" xmlns="http://www.w3.org/2000/svg" xmlns:xlink="http://www.w3.org/1999/xlink" width="400" height="85" viewBox="0, 0, 400,85"><g id="svgg"><path id="path0" d="M47.703 2.844 C 47.861 2.936,48.064 3.139,48.156 3.297 C 48.248 3.454,48.325 3.495,48.328 3.387 C 48.335 3.133,47.867 2.665,47.613 2.672 C 47.505 2.675,47.546 2.752,47.703 2.844 M48.076 12.345 C 48.016 12.443,47.861 12.482,47.733 12.433 C 47.578 12.374,47.500 12.463,47.500 12.701 C 47.500 13.057,47.501 13.057,47.917 12.667 C 48.146 12.451,48.333 12.251,48.333 12.221 C 48.333 12.103,48.180 12.176,48.076 12.345 M61.505 14.292 C 61.502 14.511,61.601 14.667,61.742 14.667 C 61.875 14.667,62.060 14.798,62.153 14.958 C 62.247 15.119,62.325 15.160,62.328 15.051 C 62.331 14.941,62.148 14.641,61.922 14.384 C 61.522 13.930,61.510 13.927,61.505 14.292 M36.792 17.448 C 36.631 17.490,36.500 17.643,36.500 17.788 C 36.500 18.016,36.545 18.011,36.833 17.750 C 37.117 17.493,37.269 17.286,37.125 17.353 C 37.102 17.363,36.952 17.406,36.792 17.448 M15.143 21.986 C 14.927 22.161,14.793 22.348,14.847 22.402 C 14.900 22.455,15.119 22.311,15.334 22.083 C 15.798 21.589,15.696 21.537,15.143 21.986 M264.975 23.612 C 264.542 23.727,264.505 24.144,264.502 28.958 L 264.500 33.500 261.011 33.500 C 257.371 33.500,256.770 33.588,256.625 34.141 C 256.569 34.357,256.370 34.493,256.061 34.529 C 255.689 34.571,255.572 34.679,255.533 35.013 C 255.490 35.389,255.376 35.461,254.617 35.596 L 253.750 35.750 253.595 36.625 C 253.460 37.383,253.388 37.500,253.055 37.500 C 252.094 37.500,251.500 38.544,251.500 40.231 C 251.500 41.467,251.496 41.478,251.042 41.531 L 250.583 41.583 250.539 46.410 L 250.495 51.237 250.997 51.631 C 251.420 51.961,251.500 52.141,251.500 52.751 C 251.500 53.695,251.725 54.266,252.141 54.375 C 252.357 54.431,252.493 54.630,252.529 54.939 C 252.572 55.317,252.677 55.428,253.032 55.468 C 253.378 55.508,253.492 55.622,253.532 55.968 C 253.572 56.315,253.685 56.428,254.032 56.468 C 254.378 56.508,254.492 56.622,254.532 56.968 C 254.574 57.337,254.678 57.426,255.115 57.468 C 255.511 57.506,255.659 57.611,255.698 57.878 C 255.757 58.282,256.218 58.458,257.287 58.483 C 257.865 58.497,258.056 58.589,258.360 59.000 L 258.729 59.500 263.353 59.500 C 268.206 59.500,268.500 59.457,268.500 58.738 C 268.500 58.552,268.789 58.500,269.833 58.500 L 271.167 58.500 271.833 57.833 L 272.500 57.167 272.500 40.533 C 272.500 27.819,272.453 23.853,272.300 23.700 C 272.106 23.506,265.664 23.429,264.975 23.612 M11.929 23.929 C 11.785 24.073,11.669 24.279,11.672 24.387 C 11.675 24.495,11.752 24.454,11.844 24.297 C 11.936 24.139,12.139 23.936,12.297 23.844 C 12.454 23.752,12.495 23.675,12.387 23.672 C 12.279 23.669,12.073 23.785,11.929 23.929 M73.583 29.000 C 73.583 32.158,73.626 32.936,73.792 32.799 C 73.947 32.670,74.000 31.697,74.000 29.000 C 74.000 26.303,73.947 25.330,73.792 25.201 C 73.626 25.064,73.583 25.842,73.583 29.000 M52.653 25.940 C 52.269 26.358,52.267 26.370,52.616 26.188 C 53.002 25.987,53.248 25.692,53.128 25.573 C 53.089 25.534,52.875 25.699,52.653 25.940 M107.974 25.612 C 107.822 25.652,107.652 25.868,107.596 26.093 C 107.497 26.487,107.445 26.500,106.008 26.500 C 104.322 26.500,103.752 26.656,103.622 27.154 C 103.548 27.437,103.399 27.500,102.807 27.503 C 101.940 27.506,101.742 27.614,101.515 28.212 C 101.419 28.462,101.225 28.667,101.083 28.667 C 100.941 28.667,100.753 28.856,100.666 29.086 C 100.578 29.317,100.327 29.574,100.109 29.657 C 99.687 29.817,99.506 30.252,99.502 31.113 C 99.500 31.532,99.423 31.655,99.132 31.697 C 98.602 31.773,98.535 32.200,98.519 35.583 C 98.503 38.992,98.544 39.266,99.099 39.406 C 99.447 39.493,99.500 39.604,99.500 40.241 C 99.500 40.992,99.807 41.500,100.262 41.500 C 100.393 41.500,100.500 41.635,100.500 41.800 C 100.500 42.184,100.816 42.500,101.200 42.500 C 101.378 42.500,101.500 42.622,101.500 42.800 C 101.500 43.207,101.823 43.500,102.272 43.500 C 102.492 43.500,102.686 43.630,102.746 43.819 C 102.853 44.158,103.622 44.500,104.273 44.500 C 104.490 44.500,104.877 44.723,105.142 45.000 C 105.501 45.377,105.769 45.500,106.226 45.500 C 106.560 45.500,106.833 45.576,106.833 45.669 C 106.833 46.016,107.917 46.499,108.697 46.499 C 109.425 46.500,109.481 46.531,109.531 46.958 C 109.574 47.338,109.674 47.425,110.115 47.468 C 110.515 47.507,110.659 47.610,110.698 47.885 C 110.730 48.113,110.887 48.270,111.115 48.302 C 111.390 48.341,111.493 48.485,111.532 48.885 C 111.575 49.326,111.662 49.426,112.042 49.469 C 112.602 49.534,112.751 50.500,112.200 50.500 C 111.816 50.500,111.500 50.816,111.500 51.200 C 111.500 51.378,111.378 51.500,111.200 51.500 C 110.816 51.500,110.500 51.816,110.500 52.200 C 110.500 52.478,110.278 52.500,107.511 52.500 L 104.522 52.500 104.469 52.042 C 104.417 51.585,104.412 51.583,102.958 51.535 C 101.695 51.493,101.500 51.448,101.500 51.194 C 101.500 50.738,101.156 50.500,100.500 50.500 C 99.842 50.500,99.500 50.738,99.500 51.197 C 99.500 51.371,99.335 51.535,99.099 51.594 C 98.620 51.714,98.505 52.074,98.502 53.458 C 98.500 54.365,98.460 54.500,98.187 54.500 C 97.632 54.500,97.456 54.922,97.530 56.076 C 97.612 57.367,97.607 57.360,98.665 57.462 C 99.366 57.530,99.520 57.606,99.600 57.922 C 99.714 58.380,100.086 58.495,101.458 58.498 C 102.349 58.500,102.500 58.543,102.500 58.800 C 102.500 59.473,102.707 59.500,107.938 59.500 C 113.236 59.500,113.500 59.464,113.500 58.738 C 113.500 58.562,113.729 58.500,114.385 58.500 C 115.166 58.500,115.312 58.444,115.623 58.023 C 115.870 57.689,116.177 57.514,116.647 57.439 C 117.265 57.340,117.327 57.282,117.430 56.708 C 117.552 56.028,117.922 55.500,118.276 55.500 C 118.414 55.500,118.500 55.308,118.500 55.000 C 118.500 54.678,118.585 54.500,118.738 54.500 C 119.444 54.500,119.500 54.165,119.500 49.938 C 119.500 45.789,119.456 45.500,118.830 45.500 C 118.636 45.500,118.517 45.256,118.405 44.625 C 118.277 43.902,118.185 43.741,117.875 43.697 C 117.614 43.660,117.500 43.530,117.500 43.272 C 117.500 42.823,117.207 42.500,116.800 42.500 C 116.622 42.500,116.500 42.378,116.500 42.200 C 116.500 41.708,116.146 41.500,115.311 41.500 C 114.574 41.500,114.519 41.470,114.469 41.042 C 114.426 40.662,114.326 40.575,113.885 40.532 C 113.489 40.494,113.341 40.389,113.302 40.122 C 113.235 39.657,112.770 39.537,110.958 39.517 L 109.500 39.500 109.500 39.000 C 109.500 38.558,109.443 38.500,109.011 38.500 C 108.602 38.500,108.514 38.426,108.469 38.042 C 108.419 37.608,108.366 37.581,107.458 37.533 L 106.500 37.483 106.500 36.754 C 106.500 36.008,106.191 35.500,105.738 35.500 C 104.963 35.500,105.511 34.559,106.375 34.405 C 107.098 34.277,107.259 34.185,107.303 33.875 C 107.344 33.586,107.466 33.500,107.834 33.500 C 108.547 33.500,109.188 33.205,109.286 32.831 C 109.434 32.263,110.463 32.368,110.531 32.958 C 110.581 33.395,110.630 33.419,111.588 33.465 C 112.432 33.506,112.620 33.572,112.755 33.874 C 112.979 34.372,113.717 34.520,115.712 34.464 L 117.417 34.417 117.465 32.969 C 117.512 31.532,117.516 31.521,117.965 31.469 L 118.417 31.417 118.417 29.638 C 118.417 27.520,118.477 27.600,116.820 27.525 C 115.714 27.474,115.500 27.419,115.500 27.182 C 115.500 26.611,115.144 26.500,113.300 26.500 C 111.851 26.500,111.500 26.454,111.500 26.262 C 111.500 25.603,109.439 25.223,107.974 25.612 M154.614 27.608 C 154.552 27.671,154.500 29.020,154.500 30.607 L 154.500 33.491 152.042 33.537 L 149.583 33.583 149.538 37.042 L 149.493 40.500 151.997 40.500 L 154.500 40.500 154.500 47.899 L 154.500 55.298 155.000 55.833 C 155.275 56.128,155.500 56.533,155.500 56.734 C 155.500 57.206,155.801 57.500,156.283 57.500 C 156.552 57.500,156.667 57.597,156.667 57.823 C 156.667 58.244,156.822 58.328,157.821 58.446 C 158.490 58.526,158.659 58.610,158.700 58.887 C 158.779 59.426,159.498 59.510,163.619 59.461 L 167.417 59.417 167.469 58.958 C 167.522 58.504,167.533 58.500,168.761 58.500 C 170.846 58.500,172.521 56.276,170.899 55.660 C 170.527 55.518,170.509 55.432,170.464 53.548 L 170.417 51.583 168.500 51.583 L 166.583 51.583 166.531 52.042 L 166.478 52.500 164.489 52.500 C 162.685 52.500,162.500 52.472,162.500 52.200 C 162.500 51.816,162.184 51.500,161.800 51.500 C 161.517 51.500,161.500 51.185,161.500 46.003 L 161.500 40.505 165.958 40.461 L 170.417 40.417 170.462 37.188 C 170.493 34.948,170.449 33.889,170.317 33.730 C 170.163 33.545,169.276 33.500,165.817 33.500 L 161.508 33.500 161.462 30.542 L 161.417 27.583 158.073 27.538 C 156.234 27.514,154.677 27.545,154.614 27.608 M50.703 31.844 C 50.861 31.936,51.064 32.139,51.156 32.297 C 51.248 32.454,51.325 32.495,51.328 32.387 C 51.335 32.133,50.867 31.665,50.613 31.672 C 50.505 31.675,50.546 31.752,50.703 31.844 M129.762 33.762 C 129.618 33.906,129.500 34.131,129.500 34.262 C 129.500 34.415,129.322 34.500,129.000 34.500 C 128.557 34.500,128.500 34.556,128.500 34.992 C 128.500 35.473,128.480 35.484,127.542 35.533 C 126.640 35.580,126.580 35.610,126.532 36.032 C 126.492 36.378,126.378 36.492,126.032 36.532 C 125.682 36.572,125.572 36.685,125.531 37.042 C 125.502 37.294,125.376 37.500,125.251 37.500 C 124.806 37.500,124.500 38.014,124.500 38.762 C 124.500 39.362,124.444 39.500,124.200 39.500 C 123.701 39.500,123.500 39.857,123.500 40.744 C 123.500 41.455,123.442 41.614,123.130 41.752 C 122.587 41.994,122.535 42.390,122.517 46.433 C 122.499 50.278,122.609 51.073,123.181 51.254 C 123.438 51.336,123.500 51.514,123.500 52.166 C 123.500 52.993,123.790 53.500,124.262 53.500 C 124.431 53.500,124.501 53.707,124.503 54.208 C 124.506 55.060,124.616 55.259,125.212 55.485 C 125.462 55.581,125.667 55.775,125.667 55.917 C 125.667 56.059,125.854 56.246,126.083 56.333 C 126.318 56.422,126.500 56.625,126.500 56.796 C 126.500 57.207,126.821 57.500,127.272 57.500 C 127.488 57.500,127.685 57.630,127.742 57.808 C 127.882 58.250,128.547 58.500,129.580 58.500 C 130.436 58.500,130.480 58.522,130.531 58.958 L 130.583 59.417 133.833 59.466 C 137.633 59.523,138.125 59.464,138.328 58.930 C 138.448 58.615,138.629 58.530,139.328 58.463 C 139.952 58.403,140.306 58.262,140.642 57.940 C 140.895 57.698,141.191 57.500,141.301 57.500 C 141.411 57.500,141.500 57.277,141.500 57.000 C 141.500 56.556,141.556 56.500,142.000 56.500 C 142.329 56.500,142.500 56.416,142.500 56.255 C 142.500 56.120,142.725 55.844,143.000 55.640 C 143.344 55.386,143.500 55.128,143.500 54.814 C 143.500 54.466,143.590 54.344,143.875 54.303 C 144.185 54.259,144.277 54.098,144.405 53.375 C 144.517 52.744,144.636 52.500,144.830 52.500 C 145.475 52.500,145.500 52.274,145.500 46.500 C 145.500 40.680,145.479 40.500,144.800 40.500 C 144.556 40.500,144.500 40.362,144.500 39.762 C 144.500 39.021,144.194 38.500,143.760 38.500 C 143.633 38.500,143.506 38.217,143.451 37.810 C 143.335 36.942,143.058 36.665,142.190 36.549 C 141.563 36.465,141.500 36.412,141.500 35.978 C 141.500 35.558,141.439 35.500,141.000 35.500 C 140.630 35.500,140.500 35.422,140.500 35.200 C 140.500 34.794,140.178 34.500,139.734 34.500 C 139.533 34.500,139.128 34.275,138.833 34.000 L 138.298 33.500 134.161 33.500 C 130.622 33.500,129.986 33.538,129.762 33.762 M180.974 33.610 C 180.822 33.651,180.652 33.868,180.596 34.093 C 180.516 34.411,180.385 34.500,179.997 34.500 C 179.558 34.500,179.500 34.557,179.500 34.992 C 179.500 35.473,179.480 35.484,178.542 35.533 C 177.640 35.580,177.580 35.610,177.532 36.032 C 177.492 36.378,177.378 36.492,177.032 36.532 C 176.663 36.574,176.574 36.678,176.532 37.115 C 176.493 37.515,176.390 37.659,176.115 37.698 C 175.817 37.740,175.722 37.910,175.596 38.617 C 175.461 39.376,175.389 39.490,175.013 39.533 L 174.583 39.583 174.538 42.542 C 174.496 45.248,174.467 45.500,174.196 45.500 C 173.738 45.500,173.500 45.843,173.500 46.500 C 173.500 47.159,173.739 47.500,174.200 47.500 C 174.477 47.500,174.500 47.715,174.500 50.300 C 174.500 53.194,174.567 53.500,175.200 53.500 C 175.422 53.500,175.500 53.630,175.500 54.000 C 175.500 54.444,175.556 54.500,176.000 54.500 C 176.486 54.500,176.500 54.522,176.500 55.300 C 176.500 56.148,176.707 56.500,177.204 56.500 C 177.371 56.500,177.576 56.678,177.659 56.896 C 177.741 57.113,177.997 57.338,178.227 57.396 C 178.456 57.454,178.690 57.644,178.746 57.820 C 178.875 58.226,179.658 58.500,180.692 58.500 C 181.359 58.500,181.500 58.552,181.500 58.800 C 181.500 59.444,181.789 59.500,185.106 59.500 C 188.440 59.500,189.140 59.388,189.286 58.831 C 189.357 58.558,189.514 58.500,190.180 58.500 C 190.826 58.500,191.098 58.406,191.536 58.030 C 191.837 57.772,192.316 57.467,192.601 57.353 C 192.953 57.212,193.220 56.923,193.434 56.448 C 193.608 56.064,193.919 55.676,194.125 55.585 C 194.384 55.472,194.500 55.278,194.500 54.960 C 194.500 54.628,194.583 54.500,194.800 54.500 C 195.303 54.500,195.500 54.141,195.500 53.228 C 195.500 52.526,195.560 52.337,195.808 52.258 C 196.305 52.100,196.500 51.417,196.500 49.837 C 196.500 48.503,196.533 48.345,196.833 48.250 C 197.511 48.035,197.547 45.047,196.875 44.752 C 196.519 44.596,196.500 44.496,196.500 42.744 C 196.500 40.842,196.393 40.500,195.800 40.500 C 195.551 40.500,195.500 40.358,195.500 39.668 C 195.500 38.954,195.429 38.773,195.000 38.390 C 194.725 38.145,194.500 37.845,194.500 37.722 C 194.500 37.589,194.309 37.500,194.022 37.500 C 193.588 37.500,193.535 37.437,193.451 36.810 C 193.335 35.942,193.058 35.665,192.190 35.549 C 191.783 35.494,191.500 35.367,191.500 35.240 C 191.500 34.808,190.979 34.500,190.249 34.500 C 189.580 34.500,189.518 34.464,189.469 34.042 L 189.417 33.583 185.333 33.560 C 183.088 33.546,181.126 33.569,180.974 33.610 M207.764 33.760 C 207.619 33.905,207.500 34.131,207.500 34.262 C 207.500 34.415,207.322 34.500,207.000 34.500 C 206.556 34.500,206.500 34.556,206.500 35.000 L 206.500 35.500 205.500 35.500 C 204.514 35.500,204.500 35.507,204.500 35.970 C 204.500 36.405,204.437 36.450,203.625 36.595 L 202.750 36.750 202.596 37.617 C 202.461 38.376,202.389 38.490,202.013 38.533 C 201.684 38.572,201.571 38.690,201.531 39.042 C 201.496 39.345,201.380 39.500,201.189 39.500 C 200.568 39.500,200.500 39.816,200.500 42.700 C 200.500 45.285,200.477 45.500,200.200 45.500 C 199.335 45.500,199.191 47.042,200.000 47.640 L 200.500 48.010 200.500 50.555 C 200.500 53.174,200.576 53.500,201.189 53.500 C 201.380 53.500,201.496 53.655,201.531 53.958 C 201.571 54.310,201.684 54.428,202.013 54.467 C 202.389 54.510,202.461 54.624,202.596 55.383 L 202.750 56.250 203.625 56.405 C 204.437 56.550,204.500 56.595,204.500 57.030 C 204.500 57.442,204.562 57.500,205.004 57.500 C 205.381 57.500,205.546 57.600,205.658 57.894 C 205.836 58.361,206.251 58.495,207.542 58.498 C 208.367 58.500,208.500 58.543,208.500 58.813 C 208.500 59.473,208.774 59.507,213.687 59.461 L 218.417 59.417 218.469 58.965 C 218.521 58.516,218.532 58.512,219.969 58.465 L 221.417 58.417 221.462 55.529 L 221.508 52.641 220.937 52.071 C 220.065 51.198,217.032 51.278,216.746 52.181 C 216.594 52.658,211.500 52.677,211.500 52.200 C 211.500 51.706,211.145 51.500,210.296 51.500 C 209.604 51.500,209.471 51.445,209.342 51.106 C 209.260 50.889,209.042 50.673,208.859 50.625 C 208.643 50.569,208.507 50.370,208.471 50.061 C 208.428 49.680,208.323 49.573,207.958 49.531 L 207.500 49.478 207.500 46.744 L 207.500 44.010 208.000 43.640 C 208.292 43.424,208.500 43.118,208.500 42.903 C 208.500 42.651,208.630 42.504,208.914 42.432 C 209.170 42.368,209.368 42.170,209.432 41.914 C 209.504 41.630,209.651 41.500,209.903 41.500 C 210.118 41.500,210.424 41.292,210.640 41.000 L 211.010 40.500 214.244 40.500 L 217.478 40.500 217.531 40.958 L 217.583 41.417 219.000 41.417 L 220.417 41.417 220.471 40.750 C 220.500 40.383,220.633 39.964,220.765 39.818 C 221.177 39.361,221.500 37.716,221.500 36.075 L 221.500 34.500 220.511 34.500 C 219.556 34.500,219.520 34.484,219.469 34.042 L 219.417 33.583 213.722 33.539 C 208.710 33.501,207.997 33.527,207.764 33.760 M232.167 33.647 C 231.911 33.718,231.729 33.906,231.697 34.132 C 231.654 34.430,231.534 34.500,231.072 34.500 C 230.550 34.500,230.500 34.543,230.500 34.992 C 230.500 35.473,230.480 35.484,229.542 35.533 C 228.593 35.583,228.583 35.589,228.531 36.128 C 228.472 36.743,227.813 37.500,227.338 37.500 C 226.755 37.500,226.500 37.959,226.500 39.007 C 226.500 39.906,226.457 40.022,226.000 40.360 C 225.515 40.718,225.500 40.770,225.500 42.104 L 225.500 43.478 225.042 43.531 L 224.583 43.583 224.538 46.437 L 224.492 49.290 224.988 49.821 C 225.411 50.273,225.492 50.506,225.534 51.384 C 225.581 52.373,225.603 52.419,226.042 52.469 C 226.479 52.520,226.501 52.565,226.517 53.469 C 226.540 54.792,226.689 55.221,227.167 55.333 C 227.418 55.393,227.608 55.585,227.667 55.839 C 227.728 56.097,227.901 56.270,228.132 56.303 C 228.360 56.336,228.500 56.474,228.500 56.666 C 228.500 57.062,228.935 57.500,229.328 57.500 C 229.495 57.500,229.872 57.725,230.167 58.000 C 230.623 58.426,230.833 58.500,231.590 58.500 C 232.435 58.500,232.480 58.522,232.531 58.958 L 232.583 59.417 235.833 59.466 C 239.671 59.523,240.124 59.467,240.337 58.908 C 240.472 58.553,240.596 58.500,241.296 58.500 C 242.134 58.500,242.500 58.294,242.500 57.822 C 242.500 57.622,242.694 57.518,243.190 57.451 C 244.056 57.335,244.335 57.058,244.450 56.199 C 244.528 55.616,244.605 55.511,244.979 55.467 C 245.314 55.429,245.429 55.312,245.468 54.968 C 245.508 54.622,245.622 54.508,245.968 54.468 C 246.412 54.417,246.417 54.403,246.465 52.969 C 246.512 51.532,246.516 51.521,246.965 51.469 L 247.417 51.417 247.417 46.500 L 247.417 41.583 246.965 41.531 C 246.516 41.479,246.512 41.468,246.465 40.031 C 246.417 38.589,246.415 38.583,245.958 38.531 C 245.574 38.486,245.500 38.398,245.500 37.989 C 245.500 37.562,245.440 37.500,245.022 37.500 C 244.577 37.500,244.537 37.446,244.457 36.736 C 244.350 35.784,244.217 35.650,243.274 35.544 C 242.608 35.469,242.512 35.407,242.467 35.021 C 242.420 34.613,242.353 34.580,241.469 34.534 C 240.577 34.487,240.518 34.457,240.469 34.034 L 240.417 33.583 236.500 33.557 C 234.346 33.542,232.396 33.583,232.167 33.647 M283.611 33.611 C 283.550 33.672,283.500 33.893,283.500 34.103 C 283.500 34.449,283.414 34.488,282.542 34.533 C 281.646 34.580,281.580 34.612,281.533 35.021 C 281.487 35.416,281.400 35.467,280.654 35.539 C 279.638 35.637,279.637 35.638,279.540 36.644 L 279.461 37.461 278.716 37.545 C 277.770 37.652,277.638 37.794,277.540 38.809 C 277.480 39.438,277.385 39.658,277.149 39.720 C 276.731 39.829,276.500 40.496,276.500 41.591 C 276.500 42.405,276.461 42.503,276.099 42.594 C 275.545 42.733,275.505 42.998,275.505 46.500 C 275.505 49.994,275.546 50.267,276.091 50.404 C 276.438 50.491,276.489 50.613,276.533 51.459 C 276.581 52.365,276.608 52.419,277.042 52.469 C 277.479 52.520,277.501 52.565,277.517 53.469 C 277.540 54.794,277.691 55.240,278.141 55.304 C 278.357 55.336,278.584 55.533,278.673 55.766 C 278.758 55.990,279.010 56.242,279.234 56.327 C 279.471 56.417,279.664 56.643,279.696 56.866 C 279.741 57.187,279.894 57.276,280.625 57.405 C 281.129 57.495,281.500 57.649,281.500 57.769 C 281.500 58.210,282.026 58.500,282.828 58.500 C 283.491 58.500,283.725 58.588,284.167 59.000 L 284.702 59.500 289.090 59.500 C 293.640 59.500,294.226 59.427,294.378 58.846 C 294.456 58.550,294.598 58.500,295.359 58.499 C 296.217 58.499,296.273 58.470,296.875 57.726 C 297.717 56.685,297.647 55.500,296.743 55.500 C 296.560 55.500,296.501 55.085,296.464 53.542 L 296.417 51.583 294.750 51.532 C 292.869 51.473,291.905 51.679,291.749 52.170 C 291.577 52.711,287.382 52.675,287.303 52.132 C 287.240 51.693,286.785 51.540,285.473 51.517 L 284.530 51.500 284.473 50.501 L 284.417 49.503 291.417 49.460 L 298.417 49.417 298.465 45.167 C 298.521 40.278,298.481 39.881,297.908 39.663 C 297.591 39.543,297.499 39.387,297.498 38.962 C 297.494 38.087,297.329 37.702,296.912 37.597 C 296.642 37.529,296.506 37.359,296.469 37.041 C 296.428 36.685,296.318 36.572,295.968 36.532 C 295.622 36.492,295.508 36.378,295.468 36.032 C 295.428 35.682,295.315 35.572,294.958 35.531 C 294.706 35.502,294.500 35.376,294.500 35.251 C 294.500 34.806,293.986 34.500,293.238 34.500 C 292.638 34.500,292.500 34.444,292.500 34.200 C 292.500 33.537,292.255 33.500,287.911 33.500 C 285.607 33.500,283.672 33.550,283.611 33.611 M308.116 33.617 C 307.950 33.660,307.746 33.876,307.661 34.097 C 307.546 34.401,307.384 34.500,307.004 34.500 C 306.555 34.500,306.500 34.555,306.500 35.000 C 306.500 35.480,306.471 35.500,305.762 35.500 C 305.005 35.500,304.500 35.807,304.500 36.266 C 304.500 36.399,304.317 36.578,304.092 36.663 C 303.525 36.879,303.478 37.303,303.535 41.667 L 303.583 45.417 304.032 45.468 C 304.378 45.508,304.492 45.622,304.532 45.968 C 304.572 46.315,304.685 46.428,305.032 46.468 C 305.378 46.508,305.492 46.622,305.532 46.968 C 305.574 47.337,305.678 47.426,306.115 47.468 C 306.511 47.506,306.659 47.611,306.698 47.878 C 306.760 48.307,307.225 48.460,308.531 48.483 C 309.435 48.499,309.480 48.521,309.531 48.958 C 309.581 49.397,309.628 49.419,310.614 49.466 C 311.531 49.510,311.651 49.556,311.698 49.882 C 311.757 50.298,312.241 50.449,313.614 50.480 C 314.427 50.499,314.481 50.527,314.531 50.958 C 314.572 51.318,314.682 51.428,315.042 51.469 C 315.426 51.514,315.500 51.602,315.500 52.011 L 315.500 52.500 312.428 52.500 C 309.387 52.500,309.356 52.496,309.303 52.132 C 309.229 51.616,308.792 51.536,305.958 51.517 L 303.500 51.500 303.500 52.497 C 303.500 53.411,303.467 53.502,303.099 53.594 C 302.595 53.721,302.505 54.062,302.502 55.867 C 302.499 58.196,302.818 58.497,305.292 58.499 C 306.344 58.500,306.500 58.539,306.500 58.800 C 306.500 59.474,306.704 59.500,312.000 59.500 C 317.296 59.500,317.500 59.474,317.500 58.800 C 317.500 58.548,317.645 58.500,318.406 58.500 C 319.519 58.500,320.171 58.268,320.286 57.831 C 320.339 57.628,320.513 57.500,320.736 57.500 C 321.178 57.500,321.500 57.205,321.500 56.800 C 321.500 56.635,321.607 56.500,321.738 56.500 C 322.285 56.500,322.500 56.003,322.500 54.738 C 322.500 53.657,322.538 53.500,322.800 53.500 C 323.742 53.500,323.816 49.834,322.876 49.698 C 322.557 49.652,322.510 49.526,322.466 48.614 C 322.419 47.628,322.397 47.581,321.958 47.531 C 321.574 47.486,321.500 47.398,321.500 46.989 C 321.500 46.557,321.442 46.500,321.000 46.500 C 320.556 46.500,320.500 46.444,320.500 46.000 C 320.500 45.556,320.444 45.500,320.003 45.500 C 319.612 45.500,319.484 45.411,319.402 45.082 C 319.318 44.751,319.160 44.643,318.636 44.559 C 318.177 44.486,317.868 44.308,317.623 43.977 C 317.284 43.519,317.216 43.500,315.885 43.500 C 314.662 43.500,314.500 43.465,314.500 43.200 C 314.500 42.707,314.146 42.500,313.300 42.500 C 312.641 42.500,312.500 42.447,312.500 42.200 C 312.500 41.707,312.146 41.500,311.300 41.500 C 310.522 41.500,310.500 41.486,310.500 41.000 L 310.500 40.500 314.072 40.500 C 317.620 40.500,317.644 40.502,317.697 40.865 C 317.767 41.349,318.490 41.527,320.133 41.465 L 321.417 41.417 321.465 39.958 C 321.501 38.848,321.568 38.500,321.745 38.500 C 322.320 38.500,322.500 38.010,322.500 36.438 C 322.500 34.644,322.411 34.500,321.300 34.500 C 320.641 34.500,320.500 34.447,320.500 34.200 C 320.500 33.517,320.337 33.499,314.258 33.519 C 311.045 33.530,308.281 33.574,308.116 33.617 M36.000 35.563 C 36.000 35.598,36.112 35.719,36.250 35.833 C 36.455 36.003,36.500 35.992,36.500 35.770 C 36.500 35.622,36.387 35.500,36.250 35.500 C 36.112 35.500,36.000 35.528,36.000 35.563 M79.547 35.623 C 79.985 35.657,80.660 35.657,81.047 35.622 C 81.434 35.587,81.075 35.559,80.250 35.559 C 79.425 35.560,79.109 35.588,79.547 35.623 M35.500 38.147 C 35.500 38.229,35.706 38.427,35.958 38.588 L 36.417 38.881 36.013 38.441 C 35.576 37.964,35.500 37.921,35.500 38.147 M61.500 39.044 C 61.500 39.090,61.612 39.343,61.749 39.606 C 61.965 40.020,61.998 40.036,61.999 39.729 C 62.000 39.534,61.887 39.281,61.750 39.167 C 61.612 39.053,61.500 38.997,61.500 39.044 M135.500 40.800 C 135.500 41.184,135.816 41.500,136.200 41.500 C 136.378 41.500,136.500 41.622,136.500 41.800 C 136.500 42.184,136.816 42.500,137.200 42.500 C 137.416 42.500,137.501 42.629,137.502 42.958 C 137.506 43.747,137.698 44.187,138.106 44.342 C 138.646 44.547,138.736 48.500,138.200 48.500 C 137.749 48.500,137.500 48.837,137.500 49.445 C 137.500 49.857,137.378 50.080,137.000 50.360 C 136.703 50.580,136.500 50.881,136.500 51.104 C 136.500 51.388,136.390 51.491,136.042 51.531 C 135.682 51.572,135.572 51.682,135.531 52.042 C 135.469 52.575,133.500 52.788,133.500 52.262 C 133.500 51.809,132.992 51.500,132.246 51.500 L 131.517 51.500 131.467 50.542 C 131.419 49.634,131.392 49.581,130.958 49.531 L 130.500 49.478 130.500 46.744 L 130.500 44.010 131.000 43.640 C 131.446 43.310,131.500 43.176,131.500 42.385 C 131.500 41.557,131.526 41.500,131.909 41.500 C 132.495 41.500,133.144 41.167,133.258 40.808 C 133.403 40.353,135.500 40.345,135.500 40.800 M186.500 40.800 C 186.500 41.185,186.816 41.500,187.204 41.500 C 187.371 41.500,187.576 41.677,187.658 41.894 C 187.740 42.111,187.964 42.328,188.154 42.378 C 188.466 42.460,188.500 42.594,188.500 43.722 C 188.500 45.004,188.713 45.500,189.262 45.500 C 189.442 45.500,189.500 45.744,189.500 46.500 C 189.500 47.256,189.442 47.500,189.262 47.500 C 188.661 47.500,188.500 47.977,188.500 49.754 L 188.500 51.483 187.542 51.533 C 186.634 51.581,186.581 51.608,186.531 52.042 C 186.454 52.708,184.571 52.759,184.406 52.099 C 184.299 51.674,183.918 51.506,183.050 51.502 C 182.518 51.500,182.517 51.498,182.467 50.542 C 182.419 49.634,182.392 49.581,181.958 49.531 L 181.500 49.478 181.500 46.500 L 181.500 43.522 181.958 43.469 C 182.342 43.425,182.425 43.327,182.470 42.866 C 182.503 42.521,182.706 42.139,183.011 41.848 C 183.311 41.562,183.500 41.210,183.500 40.940 L 183.500 40.500 185.000 40.500 C 186.333 40.500,186.500 40.533,186.500 40.800 M237.568 40.914 C 237.632 41.170,237.830 41.368,238.087 41.433 C 238.332 41.494,238.542 41.694,238.599 41.921 C 238.653 42.136,238.864 42.347,239.080 42.401 C 239.439 42.491,239.472 42.608,239.584 44.207 C 239.650 45.147,239.774 46.048,239.858 46.208 C 239.953 46.389,239.950 46.616,239.849 46.804 C 239.759 46.972,239.633 47.872,239.569 48.804 C 239.471 50.225,239.408 50.500,239.176 50.500 C 238.818 50.500,238.500 50.824,238.500 51.189 C 238.500 51.380,238.345 51.496,238.042 51.531 C 237.682 51.572,237.572 51.682,237.531 52.042 C 237.459 52.665,235.538 52.765,235.378 52.154 C 235.276 51.764,234.716 51.500,233.989 51.500 C 233.522 51.500,233.500 51.467,233.500 50.762 C 233.500 50.008,233.193 49.500,232.738 49.500 C 232.539 49.500,232.500 48.922,232.500 46.000 L 232.500 42.500 232.909 42.500 C 233.853 42.500,234.500 41.853,234.500 40.909 C 234.500 40.264,237.406 40.269,237.568 40.914 M263.595 40.902 C 263.655 41.142,263.858 41.345,264.098 41.405 L 264.500 41.506 264.500 47.003 L 264.500 52.500 262.500 52.500 L 260.500 52.500 260.500 52.000 C 260.500 51.558,260.443 51.500,260.011 51.500 C 259.602 51.500,259.514 51.426,259.469 51.042 C 259.428 50.682,259.318 50.572,258.958 50.531 L 258.500 50.478 258.500 48.689 C 258.500 46.844,258.390 46.500,257.800 46.500 C 257.350 46.500,257.438 46.111,258.000 45.610 C 258.481 45.181,258.500 45.110,258.500 43.760 C 258.500 42.431,258.520 42.354,258.875 42.303 C 259.116 42.269,259.269 42.116,259.303 41.875 C 259.340 41.614,259.470 41.500,259.728 41.500 C 260.177 41.500,260.500 41.207,260.500 40.800 C 260.500 40.260,263.458 40.358,263.595 40.902 M289.500 40.885 C 289.500 41.120,289.695 41.415,290.000 41.640 C 291.039 42.409,290.774 42.500,287.500 42.500 L 284.500 42.500 284.500 42.000 C 284.500 41.580,284.566 41.500,284.909 41.500 C 285.495 41.500,286.144 41.167,286.258 40.808 C 286.427 40.275,289.500 40.348,289.500 40.885 M36.167 46.574 C 36.167 46.706,36.000 46.931,35.796 47.074 C 35.593 47.217,35.512 47.333,35.618 47.333 C 35.886 47.333,36.333 46.857,36.333 46.571 C 36.333 46.440,36.296 46.333,36.250 46.333 C 36.204 46.333,36.167 46.442,36.167 46.574 M75.672 47.613 C 75.669 47.721,75.785 47.927,75.929 48.071 C 76.073 48.215,76.279 48.331,76.387 48.328 C 76.495 48.325,76.454 48.248,76.297 48.156 C 76.139 48.064,75.936 47.861,75.844 47.703 C 75.752 47.546,75.675 47.505,75.672 47.613 M56.250 48.833 C 56.416 49.017,56.571 49.167,56.594 49.167 C 56.617 49.167,56.596 49.017,56.548 48.833 C 56.500 48.650,56.346 48.500,56.205 48.500 C 55.989 48.500,55.996 48.553,56.250 48.833 M0.001 49.792 C 0.002 49.860,0.184 50.001,0.406 50.104 C 0.777 50.276,0.794 50.265,0.615 49.979 C 0.424 49.674,-0.001 49.544,0.001 49.792 M36.094 50.322 C 35.814 50.630,35.817 50.640,36.151 50.552 C 36.343 50.502,36.500 50.357,36.500 50.231 C 36.500 49.926,36.440 49.939,36.094 50.322 M58.672 50.613 C 58.669 50.721,58.785 50.927,58.929 51.071 C 59.073 51.215,59.279 51.331,59.387 51.328 C 59.495 51.325,59.454 51.248,59.297 51.156 C 59.139 51.064,58.936 50.861,58.844 50.703 C 58.752 50.546,58.675 50.505,58.672 50.613 M25.703 56.844 C 25.861 56.936,26.064 57.139,26.156 57.297 C 26.248 57.454,26.325 57.495,26.328 57.387 C 26.335 57.133,25.867 56.665,25.613 56.672 C 25.505 56.675,25.546 56.752,25.703 56.844 M55.929 57.929 C 55.785 58.073,55.669 58.279,55.672 58.387 C 55.675 58.495,55.752 58.454,55.844 58.297 C 55.936 58.139,56.139 57.936,56.297 57.844 C 56.454 57.752,56.495 57.675,56.387 57.672 C 56.279 57.669,56.073 57.785,55.929 57.929 M12.000 59.563 C 12.000 59.598,12.112 59.719,12.250 59.833 C 12.455 60.003,12.500 59.992,12.500 59.770 C 12.500 59.622,12.387 59.500,12.250 59.500 C 12.112 59.500,12.000 59.528,12.000 59.563 M45.250 62.088 C 45.525 62.314,45.821 62.499,45.907 62.499 C 45.994 62.500,45.811 62.313,45.500 62.083 C 44.775 61.549,44.596 61.552,45.250 62.088 M36.500 66.231 C 36.500 66.357,36.657 66.502,36.849 66.552 C 37.183 66.640,37.186 66.630,36.906 66.322 C 36.560 65.939,36.500 65.926,36.500 66.231 M50.321 70.899 C 50.814 71.430,50.861 71.437,50.684 70.958 C 50.608 70.752,50.404 70.556,50.231 70.524 C 49.956 70.471,49.967 70.518,50.321 70.899 M25.185 71.772 C 25.332 71.949,26.006 71.998,28.229 71.989 C 31.748 71.976,31.411 71.744,27.706 71.628 C 25.424 71.557,25.025 71.580,25.185 71.772 M47.758 81.050 L 47.265 81.524 47.707 81.323 C 47.950 81.212,48.192 81.008,48.245 80.870 C 48.389 80.496,48.300 80.528,47.758 81.050 " stroke="none" fill="#fcfcfc" fill-rule="evenodd"></path><path id="path1" d="M35.792 1.852 C 35.631 2.025,35.509 2.223,35.520 2.292 C 35.620 2.929,35.469 3.500,35.200 3.500 C 34.567 3.500,34.500 3.806,34.500 6.700 C 34.500 9.285,34.477 9.500,34.200 9.500 C 33.786 9.500,33.500 9.825,33.500 10.293 C 33.500 10.509,33.428 10.642,33.339 10.587 C 33.130 10.458,32.458 11.130,32.587 11.339 C 32.649 11.440,31.335 11.507,29.052 11.520 C 27.052 11.531,25.248 11.541,25.042 11.543 C 24.835 11.544,24.667 11.610,24.667 11.690 C 24.667 11.769,24.568 11.833,24.447 11.833 C 23.721 11.833,23.500 12.575,23.500 15.013 C 23.500 17.362,23.331 18.058,22.837 17.752 C 22.741 17.693,22.712 17.759,22.770 17.908 C 22.824 18.050,22.797 18.167,22.710 18.167 C 22.622 18.167,22.544 18.392,22.537 18.667 C 22.515 19.436,22.351 19.797,22.037 19.772 C 21.859 19.758,21.759 19.861,21.773 20.042 C 21.786 20.202,21.730 20.333,21.648 20.333 C 21.567 20.333,21.500 20.596,21.500 20.917 L 21.500 21.500 18.875 21.526 C 17.431 21.541,16.149 21.548,16.025 21.542 C 15.902 21.536,15.585 21.768,15.322 22.057 C 15.059 22.347,14.841 22.494,14.838 22.384 C 14.836 22.275,15.000 22.069,15.204 21.926 C 15.407 21.783,15.488 21.667,15.382 21.667 C 15.152 21.667,14.667 22.127,14.667 22.345 C 14.667 22.430,14.404 22.500,14.083 22.500 C 13.546 22.500,13.500 22.540,13.500 23.000 C 13.500 23.444,13.444 23.500,13.000 23.500 C 12.725 23.500,12.500 23.574,12.500 23.665 C 12.500 23.755,12.331 23.812,12.125 23.790 C 11.826 23.758,11.758 23.826,11.790 24.125 C 11.812 24.331,11.755 24.500,11.665 24.500 C 11.574 24.500,11.509 24.556,11.520 24.625 C 11.531 24.694,11.531 26.517,11.520 28.676 L 11.500 32.602 11.042 32.593 C 10.648 32.585,10.585 32.648,10.593 33.042 C 10.599 33.369,10.516 33.506,10.301 33.521 C 9.649 33.566,9.583 33.590,9.563 33.792 C 9.551 33.906,9.532 34.112,9.521 34.250 C 9.505 34.435,9.291 34.500,8.700 34.500 C 7.854 34.500,7.500 34.707,7.500 35.200 C 7.500 35.480,7.250 35.500,3.750 35.500 L 0.000 35.500 0.000 42.583 C 0.000 48.369,0.041 49.667,0.222 49.667 C 0.344 49.667,0.544 49.855,0.668 50.085 C 0.808 50.347,1.021 50.493,1.237 50.476 C 3.505 50.294,9.500 50.530,9.500 50.800 C 9.500 51.156,9.809 51.500,10.129 51.500 C 10.455 51.500,10.790 51.879,10.701 52.147 C 10.655 52.284,10.716 52.345,10.853 52.299 C 11.397 52.118,11.481 52.587,11.512 55.987 L 11.543 59.350 12.012 59.444 C 12.365 59.515,12.494 59.647,12.532 59.977 C 12.572 60.317,12.687 60.429,13.042 60.469 C 13.345 60.504,13.500 60.620,13.500 60.811 C 13.500 61.302,13.865 61.500,14.772 61.500 C 15.497 61.500,15.662 61.556,15.750 61.833 C 15.897 62.296,16.424 62.388,18.429 62.299 C 19.385 62.256,20.167 62.287,20.167 62.368 C 20.167 62.449,20.260 62.502,20.375 62.488 C 21.168 62.385,21.479 62.511,21.531 62.958 C 21.572 63.318,21.682 63.428,22.042 63.469 C 22.470 63.519,22.500 63.574,22.500 64.313 C 22.500 64.975,22.582 65.183,23.000 65.583 L 23.500 66.062 23.500 68.594 C 23.500 71.736,23.177 71.471,27.182 71.606 C 31.307 71.746,31.926 71.967,28.333 72.018 L 25.583 72.057 28.417 72.187 C 31.530 72.329,32.607 72.492,32.539 72.811 C 32.479 73.089,32.954 73.548,33.167 73.417 C 33.340 73.310,33.491 73.570,33.570 74.112 C 33.595 74.280,33.702 74.426,33.808 74.438 C 33.913 74.449,34.112 74.468,34.250 74.479 C 34.461 74.497,34.500 74.931,34.500 77.300 C 34.500 80.194,34.567 80.500,35.200 80.500 C 35.422 80.500,35.500 80.630,35.500 81.000 L 35.500 81.500 41.389 81.500 C 44.628 81.500,47.335 81.444,47.404 81.375 C 47.473 81.306,47.692 81.250,47.890 81.250 C 48.164 81.250,48.241 81.160,48.210 80.875 C 48.188 80.669,48.243 80.500,48.332 80.500 C 48.432 80.500,48.490 78.821,48.486 76.083 C 48.481 73.459,48.415 71.667,48.323 71.667 C 48.237 71.667,48.167 71.568,48.167 71.447 C 48.167 71.100,47.373 70.500,46.915 70.500 C 46.626 70.500,46.500 70.409,46.500 70.200 C 46.500 69.544,46.236 69.500,42.330 69.500 L 38.561 69.500 38.405 68.625 C 38.277 67.902,38.185 67.741,37.875 67.697 C 37.666 67.667,37.491 67.519,37.481 67.363 C 37.470 67.209,37.451 66.971,37.439 66.834 C 37.427 66.696,37.255 66.584,37.056 66.584 C 36.516 66.583,36.522 66.614,36.487 63.670 C 36.454 60.844,36.344 60.378,35.762 60.602 C 35.578 60.673,35.494 60.598,35.479 60.351 C 35.468 60.158,35.449 59.906,35.438 59.792 C 35.422 59.634,34.555 59.571,31.869 59.534 L 28.321 59.484 27.851 58.992 C 27.562 58.690,27.211 58.500,26.940 58.500 C 26.562 58.500,26.500 58.429,26.500 58.000 C 26.500 57.650,26.419 57.500,26.230 57.500 C 26.005 57.500,25.995 57.457,26.173 57.243 C 26.476 56.877,26.123 56.524,25.757 56.827 C 25.532 57.014,25.498 56.949,25.482 56.312 C 25.439 54.536,25.453 54.583,24.958 54.593 C 24.672 54.598,24.500 54.514,24.500 54.369 C 24.500 54.093,25.148 53.230,25.307 53.294 C 25.367 53.319,25.442 52.951,25.473 52.476 C 25.531 51.589,25.849 51.054,26.191 51.265 C 26.312 51.340,26.340 51.312,26.265 51.191 C 25.939 50.664,26.584 50.520,29.478 50.475 C 31.049 50.450,32.333 50.386,32.333 50.333 C 32.333 50.280,32.540 50.240,32.792 50.243 C 33.143 50.248,33.262 50.162,33.303 49.875 C 33.333 49.669,33.464 49.500,33.595 49.500 C 33.825 49.500,34.500 48.932,34.500 48.738 C 34.500 48.528,35.008 48.152,35.163 48.248 C 35.259 48.307,35.288 48.241,35.230 48.092 C 35.176 47.950,35.214 47.833,35.316 47.833 C 35.417 47.833,35.500 47.684,35.500 47.502 C 35.500 47.258,35.599 47.181,35.875 47.210 C 36.192 47.244,36.243 47.179,36.202 46.792 C 36.176 46.540,36.225 46.333,36.312 46.333 C 36.406 46.333,36.467 44.841,36.463 42.607 L 36.457 38.880 35.979 38.597 C 35.715 38.442,35.500 38.231,35.500 38.128 C 35.500 38.026,35.698 38.124,35.939 38.346 C 36.308 38.685,36.350 38.697,36.202 38.417 C 35.926 37.896,35.369 37.500,34.915 37.500 C 34.552 37.500,34.500 37.427,34.500 36.917 C 34.500 36.596,34.422 36.333,34.326 36.333 C 34.230 36.333,34.174 36.202,34.201 36.042 C 34.234 35.843,34.157 35.766,33.958 35.799 C 33.798 35.826,33.667 35.770,33.667 35.674 C 33.667 35.578,33.610 35.509,33.542 35.520 C 33.473 35.531,31.874 35.531,29.989 35.520 L 26.561 35.500 26.405 34.625 C 26.277 33.902,26.185 33.741,25.875 33.697 C 25.518 33.646,25.383 33.191,25.486 32.381 C 25.516 32.147,24.914 31.500,24.667 31.500 C 24.572 31.500,24.500 31.024,24.500 30.407 C 24.500 29.748,24.564 29.353,24.661 29.413 C 24.861 29.537,25.472 28.945,25.458 28.641 C 25.393 27.235,25.519 26.305,25.762 26.398 C 26.102 26.529,26.529 26.102,26.398 25.762 C 26.324 25.568,26.402 25.500,26.699 25.500 C 27.175 25.500,27.500 25.216,27.500 24.800 C 27.500 24.533,33.159 24.289,34.640 24.491 C 34.763 24.508,34.964 24.386,35.085 24.219 C 35.481 23.678,35.509 24.049,35.509 29.734 C 35.509 33.327,35.568 35.311,35.671 35.247 C 35.760 35.192,35.833 35.226,35.833 35.323 C 35.833 35.421,35.890 35.491,35.958 35.480 C 36.358 35.417,36.500 35.553,36.500 36.000 C 36.500 36.458,36.548 36.500,37.072 36.500 C 37.490 36.500,37.672 36.586,37.746 36.819 C 37.914 37.350,38.625 37.460,42.083 37.489 C 45.453 37.518,45.750 37.559,45.750 38.000 C 45.750 38.137,45.881 38.240,46.042 38.227 C 46.202 38.214,46.333 38.258,46.333 38.324 C 46.333 38.390,46.558 38.444,46.833 38.444 C 47.482 38.444,47.453 38.390,47.559 39.794 C 47.663 41.174,47.727 41.333,48.177 41.333 C 48.482 41.333,48.500 41.469,48.500 43.717 C 48.500 46.178,48.581 46.500,49.200 46.500 C 49.484 46.500,49.613 47.043,49.510 47.804 C 49.428 48.408,49.780 48.475,53.127 48.493 C 56.617 48.511,56.583 48.506,56.584 49.056 C 56.584 49.255,56.696 49.427,56.834 49.439 C 56.971 49.451,57.197 49.470,57.335 49.481 C 57.474 49.491,57.662 49.664,57.752 49.863 C 57.843 50.063,58.163 50.308,58.464 50.408 C 58.898 50.551,58.969 50.631,58.806 50.794 C 58.489 51.111,58.894 51.462,59.243 51.173 C 59.473 50.982,59.500 51.302,59.500 54.230 L 59.500 57.500 58.208 57.526 C 57.498 57.541,56.823 57.549,56.708 57.545 C 56.594 57.541,56.500 57.603,56.500 57.683 C 56.500 57.764,56.331 57.812,56.125 57.790 C 55.826 57.758,55.758 57.826,55.790 58.125 C 55.856 58.755,54.143 58.680,53.664 58.031 C 53.338 57.592,53.233 57.560,51.955 57.522 C 50.359 57.475,50.482 57.545,50.470 56.684 C 50.465 56.308,50.405 56.000,50.337 56.000 C 50.269 56.000,50.246 55.824,50.288 55.610 C 50.357 55.247,50.062 54.776,49.681 54.640 C 49.593 54.609,49.505 53.542,49.485 52.256 C 49.448 49.970,49.328 49.449,48.877 49.622 C 48.763 49.665,48.618 49.568,48.556 49.405 C 48.329 48.815,47.846 48.500,47.167 48.500 C 46.800 48.500,46.500 48.425,46.500 48.333 C 46.500 47.644,45.971 47.534,42.600 47.527 C 40.558 47.522,39.333 47.581,39.333 47.684 C 39.333 47.774,39.202 47.826,39.042 47.799 C 38.862 47.769,38.769 47.840,38.800 47.985 C 38.866 48.290,38.531 48.494,37.958 48.497 C 37.563 48.500,37.500 48.567,37.500 48.989 C 37.500 49.398,37.425 49.486,37.042 49.531 C 36.681 49.572,36.567 49.688,36.499 50.083 C 36.431 50.482,36.329 50.583,35.998 50.583 L 35.583 50.583 35.548 54.708 C 35.524 57.541,35.569 58.833,35.691 58.833 C 35.789 58.833,35.824 58.950,35.770 59.092 C 35.712 59.241,35.741 59.307,35.837 59.248 C 36.039 59.123,36.500 59.556,36.500 59.871 C 36.500 60.191,36.844 60.500,37.200 60.500 C 37.365 60.500,37.509 60.612,37.521 60.750 C 37.532 60.887,37.551 61.094,37.563 61.208 C 37.578 61.365,38.361 61.429,40.714 61.467 C 43.719 61.515,43.868 61.534,44.445 61.925 C 45.197 62.435,45.709 62.483,45.143 61.991 L 44.750 61.648 45.163 61.850 C 45.391 61.962,45.678 62.154,45.802 62.278 C 45.926 62.402,46.092 62.463,46.172 62.414 C 46.342 62.308,46.691 62.898,46.627 63.181 C 46.603 63.289,46.752 63.392,46.958 63.410 C 47.505 63.460,47.488 63.367,47.508 66.374 C 47.528 69.256,47.630 69.677,48.253 69.439 C 48.422 69.374,48.575 69.482,48.699 69.755 C 48.827 70.036,49.108 70.228,49.569 70.350 C 50.408 70.573,50.749 70.741,50.753 70.935 C 50.757 71.175,51.006 71.500,51.186 71.500 C 51.278 71.500,51.307 71.425,51.250 71.334 C 51.184 71.227,51.311 71.230,51.604 71.341 C 53.204 71.950,59.500 71.419,59.500 70.675 C 59.500 70.588,59.931 70.494,60.458 70.467 C 61.366 70.419,61.419 70.392,61.469 69.958 C 61.504 69.655,61.620 69.500,61.811 69.500 C 62.424 69.500,62.500 69.174,62.500 66.555 L 62.500 64.010 63.000 63.640 C 63.275 63.437,63.501 63.116,63.503 62.927 C 63.506 62.459,63.732 62.139,64.015 62.200 C 64.154 62.229,64.232 62.139,64.205 61.977 C 64.136 61.550,64.419 61.517,68.369 61.490 C 72.127 61.464,72.417 61.417,72.417 60.833 C 72.417 60.673,72.611 60.565,72.958 60.531 C 73.435 60.485,73.500 60.420,73.500 59.989 C 73.500 59.675,73.589 59.493,73.750 59.479 C 73.887 59.468,74.094 59.449,74.208 59.438 C 74.369 59.421,74.425 58.203,74.455 54.071 L 74.494 48.725 73.997 48.357 C 73.724 48.155,73.500 47.880,73.500 47.745 C 73.500 47.584,73.329 47.500,73.000 47.500 C 72.556 47.500,72.500 47.444,72.500 47.000 L 72.500 46.500 69.042 46.497 C 65.594 46.495,65.104 46.429,65.200 45.985 C 65.231 45.840,65.138 45.769,64.958 45.799 C 64.798 45.826,64.667 45.781,64.667 45.699 C 64.667 45.617,64.201 45.536,63.633 45.519 C 62.383 45.481,62.510 45.618,62.481 44.280 C 62.468 43.668,62.405 43.167,62.341 43.167 C 62.277 43.167,62.259 42.348,62.300 41.347 C 62.374 39.559,62.367 39.519,61.938 39.089 C 61.576 38.728,61.500 38.499,61.500 37.776 C 61.500 36.859,61.303 36.500,60.800 36.500 C 60.578 36.500,60.500 36.370,60.500 36.000 L 60.500 35.500 57.500 35.500 C 54.722 35.500,54.500 35.478,54.500 35.200 C 54.500 34.708,54.146 34.500,53.311 34.500 C 52.574 34.500,52.519 34.470,52.469 34.042 C 52.428 33.682,52.318 33.572,51.958 33.531 C 51.574 33.486,51.500 33.398,51.500 32.989 C 51.500 32.649,51.418 32.500,51.230 32.500 C 51.005 32.500,50.995 32.457,51.173 32.243 C 51.476 31.877,51.123 31.524,50.757 31.827 C 50.528 32.018,50.500 31.797,50.500 29.770 C 50.500 28.079,50.553 27.494,50.708 27.475 C 50.823 27.461,51.029 27.438,51.167 27.425 C 51.304 27.412,51.397 27.308,51.373 27.194 C 51.297 26.837,51.677 26.301,51.935 26.401 C 52.078 26.455,52.378 26.273,52.667 25.955 C 52.936 25.659,53.159 25.506,53.162 25.616 C 53.164 25.725,53.000 25.931,52.796 26.074 C 52.593 26.217,52.512 26.333,52.618 26.333 C 52.848 26.333,53.333 25.873,53.333 25.655 C 53.333 25.463,57.333 25.452,57.634 25.643 C 57.753 25.719,57.828 25.886,57.800 26.015 C 57.769 26.160,57.862 26.231,58.042 26.201 C 58.202 26.174,58.333 26.218,58.333 26.298 C 58.333 26.379,58.558 26.444,58.833 26.444 C 59.427 26.444,59.474 26.481,59.555 27.010 C 59.589 27.234,59.703 27.426,59.808 27.438 C 59.914 27.449,60.111 27.468,60.246 27.479 C 60.451 27.497,60.500 27.992,60.538 30.458 L 60.583 33.417 61.042 33.469 C 61.426 33.514,61.500 33.602,61.500 34.011 C 61.500 34.443,61.558 34.500,62.000 34.500 C 62.444 34.500,62.500 34.556,62.500 35.000 L 62.500 35.500 67.500 35.500 L 72.500 35.500 72.500 35.000 C 72.500 34.560,72.558 34.500,72.982 34.500 L 73.465 34.500 73.586 31.750 C 73.653 30.237,73.653 27.762,73.586 26.250 L 73.465 23.500 72.993 23.500 C 72.603 23.500,72.513 23.421,72.469 23.042 C 72.428 22.682,72.318 22.572,71.958 22.531 C 71.706 22.502,71.500 22.408,71.500 22.322 C 71.500 21.990,70.843 21.532,70.390 21.549 C 70.130 21.559,68.473 21.552,66.708 21.533 L 63.500 21.500 63.500 20.833 C 63.500 20.186,63.071 19.500,62.667 19.500 C 62.528 19.500,62.384 16.173,62.488 15.375 C 62.502 15.260,62.428 15.167,62.323 15.167 C 62.217 15.167,62.168 15.070,62.214 14.951 C 62.263 14.822,62.162 14.725,61.963 14.710 C 61.529 14.677,61.518 14.661,61.470 14.033 C 61.434 13.571,61.368 13.500,60.965 13.500 C 60.709 13.500,60.491 13.406,60.481 13.292 C 60.470 13.177,60.451 12.971,60.439 12.833 C 60.420 12.617,59.696 12.583,55.017 12.583 L 49.617 12.583 49.555 12.990 C 49.477 13.501,49.501 13.482,48.866 13.530 C 48.573 13.553,48.333 13.622,48.333 13.684 C 48.333 13.746,48.202 13.786,48.042 13.773 C 47.859 13.759,47.759 13.859,47.773 14.042 C 47.786 14.202,47.730 14.333,47.648 14.333 C 47.567 14.333,47.500 15.721,47.500 17.417 C 47.500 20.275,47.478 20.500,47.200 20.500 C 46.816 20.500,46.500 20.816,46.500 21.200 C 46.500 21.488,46.030 21.597,45.151 21.513 C 44.799 21.480,44.437 21.930,44.559 22.248 C 44.644 22.468,44.204 22.500,41.078 22.500 L 37.500 22.500 37.500 22.982 C 37.500 23.409,37.433 23.471,36.914 23.532 C 36.164 23.620,35.805 23.412,36.193 23.115 C 36.427 22.935,36.472 22.505,36.491 20.250 C 36.516 17.407,36.514 17.417,37.050 17.417 C 37.332 17.417,37.412 17.308,37.433 16.896 C 37.450 16.553,37.636 16.206,37.979 15.878 C 38.305 15.566,38.500 15.216,38.500 14.940 L 38.500 14.500 42.083 14.475 C 46.605 14.443,46.475 14.462,46.434 13.838 C 46.422 13.668,46.597 13.566,46.958 13.531 C 47.449 13.484,47.500 13.428,47.500 12.929 C 47.500 12.446,47.549 12.385,47.905 12.424 C 48.214 12.458,48.287 12.406,48.210 12.207 C 48.146 12.040,48.177 11.987,48.296 12.060 C 48.432 12.144,48.482 10.991,48.482 7.838 C 48.482 5.256,48.419 3.500,48.327 3.500 C 48.241 3.500,48.188 3.331,48.210 3.125 C 48.242 2.826,48.166 2.750,47.833 2.750 C 47.501 2.750,47.425 2.674,47.456 2.375 C 47.482 2.136,47.406 2.000,47.248 2.000 C 47.112 2.000,47.000 1.891,47.000 1.757 C 47.000 1.332,36.188 1.424,35.792 1.852 M74.070 29.000 C 74.070 30.879,74.095 31.648,74.124 30.708 C 74.154 29.769,74.154 28.231,74.124 27.292 C 74.095 26.352,74.070 27.121,74.070 29.000 M78.167 35.726 C 78.167 35.805,78.050 35.824,77.908 35.770 C 77.759 35.712,77.693 35.741,77.752 35.837 C 77.949 36.156,77.380 36.471,76.502 36.527 C 75.711 36.577,75.610 36.627,75.554 36.990 C 75.478 37.488,75.488 37.478,74.990 37.554 C 74.626 37.610,74.577 37.710,74.526 38.517 C 74.461 39.551,74.468 39.539,73.964 39.564 C 73.585 39.583,73.583 39.595,73.553 42.364 C 73.522 45.260,73.617 45.683,74.248 45.441 C 74.443 45.366,74.500 45.474,74.500 45.922 C 74.500 46.453,74.541 46.500,75.000 46.500 C 75.444 46.500,75.500 46.556,75.500 47.000 C 75.500 47.350,75.581 47.500,75.770 47.500 C 75.995 47.500,76.005 47.543,75.827 47.757 C 75.524 48.123,75.877 48.476,76.243 48.173 C 76.455 47.996,76.500 48.003,76.500 48.210 C 76.500 48.425,77.022 48.463,80.167 48.478 C 82.716 48.490,83.833 48.439,83.833 48.313 C 83.833 48.213,83.950 48.176,84.092 48.230 C 84.241 48.288,84.307 48.259,84.248 48.163 C 84.123 47.961,84.556 47.500,84.871 47.500 C 85.302 47.500,85.500 47.100,85.500 46.232 C 85.500 45.475,85.539 45.375,85.803 45.444 C 86.406 45.602,86.495 45.175,86.455 42.320 C 86.423 40.024,86.376 39.581,86.167 39.567 C 86.029 39.558,85.823 39.539,85.708 39.525 C 85.568 39.508,85.500 39.175,85.500 38.500 L 85.500 37.500 85.000 37.500 C 84.630 37.500,84.500 37.422,84.500 37.200 C 84.500 36.751,84.164 36.500,83.562 36.500 C 83.181 36.500,82.925 36.373,82.684 36.067 C 82.337 35.626,78.166 35.311,78.167 35.726 M61.999 39.729 C 61.998 40.036,61.965 40.020,61.749 39.606 C 61.435 39.004,61.435 38.905,61.750 39.167 C 61.887 39.281,62.000 39.534,61.999 39.729 M62.015 42.348 C 61.909 42.614,61.851 42.656,61.844 42.472 C 61.830 42.103,62.046 41.553,62.119 41.773 C 62.150 41.868,62.104 42.126,62.015 42.348 M58.411 49.819 C 58.382 49.965,58.353 50.111,58.346 50.145 C 58.339 50.180,58.222 50.115,58.085 50.002 C 57.804 49.768,57.870 49.556,58.224 49.556 C 58.355 49.556,58.439 49.674,58.411 49.819 " stroke="none" fill="#849cfc" fill-rule="evenodd"></path><path id="path2" d="" stroke="none" fill="#dc100fc" fill-rule="evenodd"></path><path id="path3" d="" stroke="none" fill="#dc100fc" fill-rule="evenodd"></path><path id="path4" d="" stroke="none" fill="#dc100fc" fill-rule="evenodd"></path></g></svg>