<?xml version="1.0" encoding="utf-8"?>
<!-- Generator: Adobe Illustrator 16.0.0, SVG Export Plug-In . SVG Version: 6.00 Build 0)  -->
<!DOCTYPE svg PUBLIC "-//W3C//DTD SVG 1.1//EN" "http://www.w3.org/Graphics/SVG/1.1/DTD/svg11.dtd">
<svg version="1.1" id="Layer_1" xmlns="http://www.w3.org/2000/svg" xmlns:xlink="http://www.w3.org/1999/xlink" x="0px" y="0px"
	 width="114px" height="107px" viewBox="0 0 114 107" enable-background="new 0 0 114 107" xml:space="preserve">
<path fill="#FFFFFF" d="M100.951,23.726c-0.682,0.11-1.379-0.104-1.881-0.583c-0.49-0.48-0.731-1.162-0.631-1.85
	c0.411-3.012,1.109-6.745-1.008-8.809c-3.547-3.451-9.223-3.358-12.674,0.168c-3.069,3.149-2.917,7.386-2.917,12.899
	c0.056,0.821-0.039,3.388,0,4.203v10.75c3.068,0,8.941,0.029,12.297,0.029c0.805,0.012,1.64-0.029,2.456,0
	c5.293,0,10.293,0.283,13.372-2.879c3.451-3.543,3.368-9.225-0.174-12.675C107.686,22.917,103.963,23.223,100.951,23.726
	 M109.531,67.757l-0.101-0.792l-2.895-24.31c-2.174,0.659-4.504,0.774-6.802,0.774c-1.249,0-2.528,0.041-3.783,0
	c-0.799,0-1.695,0.012-2.484,0c-3.384,0-14.758,0.034-14.758,0.034v-3.005v-1.313V19.188c0-6.132,3.852-9.508,3.852-9.508
	l-0.063,0.012l-72.121-3.74L9.505,5.906c-3.801,0.046-6.858,3.127-6.858,6.925v64.307c0,3.821,3.103,6.925,6.932,6.925
	c0.102,0,0.186,0,0.287-0.006l0.771-0.081l3.913-0.369v21.304l23.462-23.559l65.112-6.265l0.349-0.035
	c3.425-0.41,6.082-3.335,6.082-6.866C109.544,68.041,109.544,67.901,109.531,67.757"/>
</svg>
