<?xml version="1.0" encoding="utf-8"?>
<!-- Generator: Adobe Illustrator 16.0.0, SVG Export Plug-In . SVG Version: 6.00 Build 0)  -->
<!DOCTYPE svg PUBLIC "-//W3C//DTD SVG 1.1//EN" "http://www.w3.org/Graphics/SVG/1.1/DTD/svg11.dtd">
<svg version="1.1" id="Layer_1" xmlns="http://www.w3.org/2000/svg" xmlns:xlink="http://www.w3.org/1999/xlink" x="0px" y="0px"
	 width="190px" height="107px" viewBox="0 0 190 107" enable-background="new 0 0 190 107" xml:space="preserve">
<g>
	<path fill="#FFFFFF" d="M99.939,23.71c-0.68,0.11-1.379-0.1-1.869-0.58s-0.721-1.17-0.631-1.85c0.41-3.02,1.121-6.75-1-8.81
		C92.9,9.02,87.22,9.11,83.77,12.65c-3.06,3.15-2.92,7.39-2.92,12.9c0.05,0.82-0.04,3.39,0,4.2V40.5c3.07,0,8.94,0.03,12.29,0.03
		c0.81,0.02,1.64-0.03,2.45,0c5.301,0,10.301,0.28,13.381-2.88c3.449-3.54,3.359-9.22-0.181-12.67
		C106.67,22.9,102.95,23.21,99.939,23.71"/>
	<path fill="#FFFFFF" d="M46.22,29.14c2.12,0,3.19-1.31,3.19-3.95c0-2.57-1.07-3.85-3.19-3.85c-2.12,0-3.19,1.28-3.19,3.85
		C43.04,27.83,44.09,29.14,46.22,29.14"/>
	<path fill="#FFFFFF" d="M32.28,37.7c-1.89,0-2.91,1.01-3.07,3.05h5.9C35.23,38.72,34.29,37.7,32.28,37.7"/>
	<path fill="#FFFFFF" d="M60.38,55.359c-2.12,0-3.18,1.281-3.18,3.861c0,2.639,1.06,3.959,3.18,3.959c2.13,0,3.19-1.31,3.19-3.959
		C63.57,56.65,62.5,55.359,60.38,55.359"/>
	<path fill="#FFFFFF" d="M17.94,37.97c-1.27,0-2.35,0.24-3.25,0.71v6.77c0.9,0.34,1.98,0.51,3.25,0.51c2.17,0,3.26-1.44,3.26-4.34
		C21.21,39.18,20.12,37.97,17.94,37.97"/>
	<path fill="#FFFFFF" d="M85.84,59.54c0,2.45,0.92,3.67,2.76,3.67c1.08,0,2-0.14,2.75-0.431v-5.75c-0.76-0.399-1.69-0.6-2.75-0.6
		C86.77,56.439,85.84,57.471,85.84,59.54"/>
	<path fill="#FFFFFF" d="M61.12,37.7c-1.89,0-2.91,1.01-3.07,3.05h5.91C64.08,38.72,63.14,37.7,61.12,37.7"/>
	<path fill="#FFFFFF" d="M102.45,75.05l-0.341,0.03C102.221,75.08,102.33,75.061,102.45,75.05"/>
	<path fill="#FFFFFF" d="M108.42,66.95l0.09,0.8C108.51,67.48,108.471,67.21,108.42,66.95"/>
	<path fill="#FFFFFF" d="M94.34,65.029c-1.8,0.471-3.63,0.711-5.5,0.711c-3.95,0-5.93-2.04-5.93-6.12c0-3.761,1.89-5.64,5.69-5.64
		c1.01,0,1.94,0.19,2.76,0.56v-4.82h2.97v15.309H94.34z M75.4,37.54c-1.3,0-2.46,0.59-3.5,1.76v9.28h-3.5V34.72h2.7l0.43,1.76
		c1.21-1.18,2.5-1.76,3.85-1.76L75.4,37.54L75.4,37.54z M75.4,54.37c-1.3,0-2.46,0.59-3.5,1.76v9.28h-3.5V51.55h2.7l0.43,1.77
		c1.21-1.18,2.5-1.77,3.85-1.77L75.4,54.37L75.4,54.37z M68.39,19.08h2.46l0.4,1.6c1.11-1.08,2.28-1.6,3.51-1.6v2.57
		c-1.19,0-2.25,0.54-3.19,1.6v8.45h-3.19V19.08H68.39z M67.31,43.37h-9.27c0,1.91,1.55,2.86,4.67,2.86c1.43,0,2.86-0.13,4.29-0.4
		v2.83c-1.25,0.27-2.86,0.4-4.82,0.4c-5.13,0-7.69-2.41-7.69-7.24c0-4.62,2.35-6.91,7.05-6.91C66.23,34.9,68.15,37.72,67.31,43.37
		 M60.38,65.689c-4.22,0-6.35-2.14-6.37-6.42c0-4.289,2.12-6.43,6.37-6.43s6.38,2.141,6.38,6.43
		C66.74,63.54,64.62,65.689,60.38,65.689 M47.21,65.279l-2.56-8.069l-2.53,8.12l-2.9-0.03L34.5,50.58h3.72l2.55,8.891l3-8.891h1.81
		l2.92,8.891l2.57-8.891h3.63l-4.69,14.71h-2.8V65.279z M25.64,41.81c0-4.62,2.35-6.91,7.05-6.91c4.7,0,6.63,2.83,5.79,8.47h-9.26
		c0,1.91,1.55,2.86,4.66,2.86c1.43,0,2.86-0.13,4.29-0.4v2.83c-1.25,0.27-2.86,0.4-4.82,0.4C28.2,49.06,25.64,46.64,25.64,41.81
		 M17.68,48.93c-2.2,0-4.36-0.28-6.48-0.83V30.05h3.5v5.67c0.97-0.45,2.06-0.66,3.26-0.66c4.46,0,6.7,2.22,6.7,6.65
		C24.66,46.52,22.33,48.93,17.68,48.93 M39.86,32.43h2.58l0.53,2.25h3.22v2.77h-2.84v6.38c0,1.29,0.56,1.94,1.68,1.94h1.17v2.77
		h-2.86c-2.32,0-3.48-1.25-3.48-3.74V32.43z M46.22,18.81c4.24,0,6.37,2.14,6.37,6.43c0,4.271-2.12,6.42-6.37,6.42
		c-4.22,0-6.35-2.14-6.37-6.42C39.86,20.95,41.97,18.81,46.22,18.81 M53.02,45.84h1.16v2.77h-2.86c-2.32,0-3.48-1.25-3.48-3.74
		V32.51h2.58l0.53,2.25h3.22v2.77h-2.84v6.38C51.34,45.19,51.9,45.84,53.02,45.84 M54.12,19.08h3.19v7.95c0,1.4,0.68,2.09,2.07,2.09
		c1.11,0,2.25-0.54,3.4-1.6v-8.45h3.18v12.61h-2.48l-0.38-1.6c-1.53,1.08-3.06,1.6-4.62,1.6c-2.9,0-4.35-1.56-4.35-4.7v-7.9H54.12z
		 M108.52,67.75l-0.09-0.8l-2.9-24.31c-2.17,0.66-4.5,0.77-6.799,0.77c-1.25,0-2.541,0.04-3.791,0c-0.8,0-1.69,0.02-2.48,0
		c-3.38,0-8.78,0.01-11.58,0.01V65.23H77.7V40.45v-1.3V19.17c0-6.14,3.85-9.51,3.85-9.51l-0.07,0.01L9.38,5.94L8.51,5.9
		c-3.8,0.03-6.85,3.12-6.85,6.92v64.321c0,3.83,3.11,6.92,6.93,6.92c0.09,0,0.19,0,0.28-0.011l0.78-0.069l3.9-0.371v21.301
		L37.02,81.35l65.1-6.26l0.34-0.029c3.42-0.42,6.08-3.33,6.08-6.871C108.54,68.04,108.529,67.891,108.52,67.75"/>
</g>
<g>
	<path fill="#FFFFFF" stroke="#FFFFFF" stroke-width="0.2" stroke-miterlimit="10" d="M117.57,15.19h1.47
		c0.26,0,0.51,0.02,0.72,0.07c0.221,0.04,0.41,0.12,0.561,0.24c0.16,0.11,0.27,0.26,0.359,0.43c0.09,0.18,0.131,0.41,0.131,0.67
		c0,0.25-0.051,0.48-0.131,0.66c-0.09,0.18-0.199,0.34-0.359,0.46c-0.16,0.13-0.34,0.21-0.561,0.27c-0.22,0.06-0.449,0.09-0.72,0.09
		h-0.86v1.9h-0.609V15.19L117.57,15.19z M118.971,17.59c0.42,0,0.719-0.08,0.93-0.24c0.199-0.16,0.3-0.41,0.3-0.75
		c0-0.35-0.101-0.59-0.3-0.72c-0.2-0.14-0.521-0.2-0.93-0.2h-0.791v1.91H118.971z"/>
	<path fill="#FFFFFF" stroke="#FFFFFF" stroke-width="0.2" stroke-miterlimit="10" d="M123.57,20.08c-0.311,0-0.58-0.06-0.84-0.17
		c-0.25-0.11-0.461-0.28-0.65-0.5c-0.18-0.21-0.311-0.48-0.42-0.79c-0.1-0.31-0.15-0.66-0.15-1.04s0.051-0.74,0.15-1.04
		c0.1-0.3,0.24-0.57,0.42-0.78c0.18-0.21,0.4-0.37,0.65-0.49c0.25-0.11,0.529-0.17,0.84-0.17c0.3,0,0.58,0.06,0.83,0.17
		s0.459,0.28,0.66,0.49c0.18,0.21,0.33,0.479,0.43,0.78c0.1,0.31,0.15,0.64,0.15,1.03c0,0.39-0.051,0.74-0.15,1.04
		c-0.1,0.31-0.24,0.58-0.43,0.79c-0.181,0.21-0.4,0.39-0.66,0.5C124.141,20.02,123.859,20.08,123.57,20.08 M123.57,19.54
		c0.209,0,0.41-0.04,0.58-0.13c0.17-0.09,0.33-0.23,0.439-0.4c0.12-0.17,0.221-0.38,0.29-0.62c0.07-0.24,0.101-0.51,0.101-0.81
		c0-0.29-0.041-0.57-0.101-0.8c-0.06-0.23-0.17-0.44-0.29-0.61c-0.13-0.17-0.27-0.29-0.439-0.38c-0.18-0.09-0.371-0.14-0.58-0.14
		c-0.221,0-0.41,0.04-0.59,0.14c-0.17,0.09-0.33,0.21-0.44,0.38c-0.13,0.17-0.229,0.37-0.28,0.61c-0.07,0.24-0.1,0.51-0.1,0.8
		c0,0.31,0.029,0.58,0.1,0.81c0.07,0.24,0.16,0.45,0.28,0.62c0.12,0.17,0.271,0.31,0.44,0.4C123.15,19.5,123.35,19.54,123.57,19.54"
		/>
	<path fill="#FFFFFF" stroke="#FFFFFF" stroke-width="0.2" stroke-miterlimit="10" d="M126.109,15.19h0.631l0.51,2.61
		c0.05,0.26,0.09,0.52,0.141,0.78c0.049,0.25,0.09,0.51,0.139,0.78h0.021c0.06-0.26,0.11-0.52,0.171-0.78
		c0.059-0.26,0.109-0.51,0.17-0.77l0.67-2.61h0.549l0.67,2.61c0.061,0.25,0.131,0.51,0.171,0.77c0.06,0.26,0.13,0.52,0.18,0.78
		h0.021c0.039-0.26,0.09-0.52,0.14-0.78c0.05-0.26,0.09-0.51,0.14-0.77l0.51-2.61h0.59l-0.989,4.81h-0.74l-0.72-2.9
		c-0.04-0.18-0.08-0.36-0.12-0.54c-0.03-0.18-0.08-0.36-0.11-0.54h-0.02c-0.04,0.18-0.08,0.37-0.12,0.54
		c-0.05,0.18-0.08,0.36-0.11,0.54l-0.709,2.9h-0.721L126.109,15.19z"/>
	<polygon fill="#FFFFFF" stroke="#FFFFFF" stroke-width="0.2" stroke-miterlimit="10" points="132.37,15.19 135.13,15.19 
		135.13,15.7 132.971,15.7 132.971,17.22 134.79,17.22 134.79,17.74 132.971,17.74 132.971,19.48 135.21,19.48 135.21,20 132.37,20 
			"/>
	<path fill="#FFFFFF" stroke="#FFFFFF" stroke-width="0.2" stroke-miterlimit="10" d="M138.859,20l-1.149-2.03h-0.87V20h-0.609
		v-4.81h1.5c0.25,0,0.47,0.02,0.68,0.07c0.199,0.04,0.38,0.12,0.529,0.229c0.15,0.11,0.261,0.25,0.351,0.42
		c0.08,0.17,0.12,0.38,0.12,0.63c0,0.37-0.1,0.68-0.29,0.9c-0.19,0.23-0.45,0.37-0.78,0.46l1.21,2.09h-0.69V20z M136.82,17.46h0.8
		c0.37,0,0.67-0.08,0.86-0.23c0.199-0.16,0.289-0.39,0.289-0.7c0-0.32-0.1-0.54-0.289-0.67c-0.201-0.12-0.49-0.19-0.86-0.19h-0.8
		V17.46z"/>
	<polygon fill="#FFFFFF" stroke="#FFFFFF" stroke-width="0.2" stroke-miterlimit="10" points="140.48,15.19 143.24,15.19 
		143.24,15.7 141.08,15.7 141.08,17.22 142.91,17.22 142.91,17.74 141.08,17.74 141.08,19.48 143.32,19.48 143.32,20 140.48,20 	"/>
	<path fill="#FFFFFF" stroke="#FFFFFF" stroke-width="0.2" stroke-miterlimit="10" d="M144.33,15.19h1.199
		c0.74,0,1.301,0.2,1.681,0.61c0.38,0.41,0.58,1,0.58,1.76c0,0.39-0.05,0.72-0.149,1.02c-0.101,0.31-0.24,0.55-0.431,0.76
		c-0.19,0.2-0.431,0.36-0.7,0.48c-0.27,0.11-0.6,0.17-0.96,0.17h-1.229v-4.8H144.33z M145.49,19.5c0.55,0,0.98-0.17,1.27-0.51
		c0.28-0.34,0.42-0.81,0.42-1.41c0-0.61-0.13-1.07-0.42-1.4c-0.279-0.33-0.699-0.49-1.27-0.49h-0.551v3.81H145.49z"/>
	<path fill="#FFFFFF" stroke="#FFFFFF" stroke-width="0.2" stroke-miterlimit="10" d="M150.32,15.19h1.43
		c0.25,0,0.46,0.02,0.67,0.07c0.2,0.04,0.37,0.11,0.52,0.2c0.15,0.09,0.261,0.21,0.34,0.36c0.08,0.15,0.121,0.33,0.121,0.54
		c0,0.24-0.07,0.45-0.2,0.64s-0.341,0.33-0.62,0.4v0.03c0.35,0.06,0.62,0.17,0.811,0.36c0.189,0.19,0.289,0.45,0.289,0.78
		c0,0.24-0.039,0.44-0.13,0.61c-0.09,0.18-0.22,0.33-0.37,0.44c-0.16,0.11-0.35,0.2-0.58,0.26c-0.229,0.06-0.47,0.09-0.75,0.09
		h-1.529V15.19L150.32,15.19z M151.63,17.24c0.42,0,0.71-0.07,0.89-0.22c0.181-0.15,0.26-0.35,0.26-0.61
		c0-0.26-0.09-0.45-0.279-0.57c-0.189-0.11-0.471-0.17-0.85-0.17h-0.74v1.56h0.72V17.24z M151.76,19.51c0.42,0,0.74-0.08,0.971-0.23
		c0.229-0.16,0.34-0.4,0.34-0.72c0-0.29-0.11-0.52-0.34-0.66c-0.23-0.14-0.551-0.2-0.971-0.2h-0.84v1.82h0.84V19.51z"/>
	<path fill="#FFFFFF" stroke="#FFFFFF" stroke-width="0.2" stroke-miterlimit="10" d="M155.3,18.13l-1.44-2.94h0.65l0.62,1.36
		c0.08,0.18,0.149,0.35,0.229,0.52c0.07,0.17,0.15,0.35,0.24,0.53h0.021c0.08-0.18,0.17-0.35,0.25-0.53
		c0.08-0.17,0.159-0.34,0.239-0.52l0.611-1.36h0.629l-1.439,2.94v1.85h-0.61V18.13L155.3,18.13z"/>
</g>
<g>
	<path fill="#FFFFFF" stroke="#FFFFFF" stroke-width="0.5" stroke-miterlimit="10" d="M118.09,30.58c0.25,0.26,0.54,0.48,0.87,0.63
		c0.33,0.16,0.681,0.24,1.04,0.24c0.46,0,0.82-0.1,1.07-0.31c0.26-0.21,0.38-0.49,0.38-0.82c0-0.18-0.03-0.32-0.091-0.46
		c-0.06-0.12-0.139-0.23-0.25-0.32c-0.1-0.08-0.229-0.17-0.359-0.24c-0.141-0.07-0.29-0.14-0.45-0.22l-1-0.44
		c-0.159-0.07-0.329-0.15-0.5-0.26c-0.18-0.09-0.319-0.22-0.46-0.36c-0.13-0.15-0.25-0.31-0.33-0.51
		c-0.08-0.2-0.119-0.41-0.119-0.67c0-0.26,0.049-0.51,0.17-0.73c0.1-0.23,0.26-0.42,0.449-0.59c0.2-0.17,0.43-0.3,0.69-0.38
		c0.271-0.09,0.56-0.13,0.88-0.13c0.41,0,0.8,0.08,1.16,0.24c0.35,0.16,0.65,0.36,0.9,0.62l-0.471,0.57
		c-0.22-0.21-0.449-0.36-0.699-0.49c-0.261-0.11-0.551-0.18-0.871-0.18c-0.39,0-0.699,0.09-0.939,0.27s-0.35,0.42-0.35,0.75
		c0,0.17,0.029,0.31,0.1,0.43c0.07,0.11,0.15,0.22,0.27,0.31c0.11,0.08,0.24,0.17,0.37,0.23c0.14,0.07,0.271,0.13,0.41,0.19
		l0.979,0.42c0.201,0.08,0.381,0.19,0.561,0.29c0.18,0.11,0.33,0.24,0.46,0.38s0.229,0.31,0.3,0.51c0.07,0.2,0.11,0.42,0.11,0.67
		c0,0.27-0.05,0.53-0.17,0.78c-0.11,0.24-0.271,0.45-0.479,0.63c-0.211,0.18-0.461,0.32-0.75,0.42c-0.291,0.1-0.621,0.16-0.98,0.16
		c-0.49,0-0.94-0.09-1.36-0.28c-0.409-0.19-0.78-0.43-1.08-0.76L118.09,30.58z"/>
	
		<rect x="123.721" y="25.15" fill="#FFFFFF" stroke="#FFFFFF" stroke-width="0.5" stroke-miterlimit="10" width="0.879" height="6.96"/>
	<path fill="#FFFFFF" stroke="#FFFFFF" stroke-width="0.5" stroke-miterlimit="10" d="M126.5,25.15h0.91l2.51,4.37l0.76,1.44h0.041
		c-0.021-0.35-0.041-0.71-0.07-1.1c-0.021-0.38-0.041-0.76-0.041-1.12v-3.59h0.841v6.96h-0.91l-2.53-4.38l-0.75-1.43h-0.039
		c0.029,0.35,0.049,0.71,0.079,1.08c0.03,0.36,0.04,0.73,0.04,1.1v3.63h-0.84V25.15L126.5,25.15z"/>
	<path fill="#FFFFFF" stroke="#FFFFFF" stroke-width="0.5" stroke-miterlimit="10" d="M132.96,28.62c0-0.56,0.069-1.06,0.24-1.5
		c0.159-0.44,0.38-0.82,0.67-1.14c0.29-0.31,0.62-0.55,1.01-0.71c0.38-0.17,0.82-0.25,1.28-0.25c0.48,0,0.88,0.09,1.199,0.27
		c0.32,0.18,0.58,0.37,0.791,0.59l-0.5,0.56c-0.17-0.19-0.381-0.34-0.61-0.46s-0.521-0.19-0.87-0.19s-0.67,0.06-0.949,0.2
		c-0.291,0.13-0.531,0.32-0.721,0.56c-0.2,0.25-0.35,0.54-0.46,0.88c-0.101,0.35-0.17,0.73-0.17,1.17s0.05,0.83,0.149,1.18
		c0.101,0.35,0.25,0.65,0.451,0.9c0.199,0.25,0.43,0.43,0.719,0.57c0.291,0.13,0.61,0.2,0.99,0.2c0.25,0,0.48-0.04,0.7-0.11
		c0.22-0.07,0.399-0.18,0.55-0.3v-1.8h-1.47V28.51h2.28v2.92c-0.23,0.24-0.53,0.42-0.9,0.58c-0.369,0.16-0.79,0.229-1.25,0.229
		s-0.88-0.08-1.26-0.25c-0.38-0.17-0.71-0.39-0.98-0.7c-0.279-0.31-0.49-0.68-0.649-1.14C133.04,29.69,132.96,29.19,132.96,28.62"/>
	<path fill="#FFFFFF" stroke="#FFFFFF" stroke-width="0.5" stroke-miterlimit="10" d="M143.04,29.97h-2.53l-0.67,2.12h-0.9
		l2.351-6.96h1l2.351,6.96h-0.94L143.04,29.97z M142.82,29.27l-0.33-1.06c-0.12-0.39-0.25-0.78-0.36-1.16
		c-0.11-0.38-0.229-0.78-0.34-1.18h-0.04c-0.1,0.4-0.221,0.8-0.33,1.18c-0.109,0.38-0.23,0.78-0.359,1.16l-0.33,1.06H142.82z"/>
	<path fill="#FFFFFF" stroke="#FFFFFF" stroke-width="0.5" stroke-miterlimit="10" d="M145.62,25.15h2.13c0.38,0,0.74,0.03,1.05,0.1
		c0.32,0.07,0.591,0.19,0.81,0.34c0.23,0.16,0.391,0.37,0.521,0.63c0.12,0.26,0.19,0.58,0.19,0.96c0,0.36-0.061,0.68-0.19,0.95
		s-0.3,0.5-0.53,0.67c-0.229,0.18-0.5,0.31-0.81,0.39s-0.66,0.13-1.05,0.13h-1.25v2.75h-0.881L145.62,25.15L145.62,25.15z
		 M147.65,28.62c0.609,0,1.05-0.11,1.35-0.34c0.29-0.23,0.43-0.59,0.43-1.09s-0.15-0.85-0.449-1.05c-0.301-0.2-0.75-0.29-1.34-0.29
		h-1.15v2.76h1.16V28.62z"/>
	<path fill="#FFFFFF" stroke="#FFFFFF" stroke-width="0.5" stroke-miterlimit="10" d="M154.3,32.22c-0.43,0-0.84-0.08-1.2-0.26
		c-0.359-0.17-0.67-0.41-0.939-0.72c-0.26-0.31-0.471-0.69-0.61-1.15c-0.14-0.44-0.22-0.95-0.22-1.51s0.07-1.06,0.22-1.5
		c0.15-0.44,0.351-0.82,0.61-1.12c0.26-0.31,0.57-0.54,0.939-0.7c0.36-0.17,0.771-0.25,1.2-0.25c0.44,0,0.841,0.08,1.2,0.25
		c0.359,0.17,0.67,0.4,0.939,0.71c0.271,0.31,0.471,0.68,0.621,1.12c0.149,0.45,0.219,0.94,0.219,1.49c0,0.56-0.069,1.07-0.219,1.51
		c-0.141,0.45-0.351,0.83-0.621,1.15c-0.27,0.31-0.58,0.56-0.939,0.72C155.141,32.14,154.73,32.22,154.3,32.22 M154.3,31.45
		c0.31,0,0.591-0.06,0.841-0.2c0.25-0.13,0.459-0.33,0.649-0.58c0.181-0.25,0.319-0.55,0.42-0.9c0.09-0.35,0.14-0.75,0.14-1.18
		c0-0.43-0.05-0.82-0.14-1.17c-0.101-0.34-0.239-0.64-0.42-0.88c-0.19-0.24-0.39-0.42-0.649-0.56c-0.261-0.13-0.531-0.2-0.841-0.2
		s-0.59,0.06-0.84,0.2c-0.25,0.13-0.46,0.32-0.64,0.56c-0.18,0.24-0.32,0.54-0.42,0.88c-0.101,0.34-0.15,0.73-0.15,1.17
		s0.05,0.83,0.15,1.18c0.1,0.35,0.24,0.65,0.42,0.9s0.39,0.45,0.64,0.58C153.7,31.38,153.99,31.45,154.3,31.45"/>
	<path fill="#FFFFFF" stroke="#FFFFFF" stroke-width="0.5" stroke-miterlimit="10" d="M162.58,32.09l-1.68-2.94h-1.26v2.94h-0.881
		v-6.96h2.17c0.35,0,0.67,0.03,0.98,0.1c0.3,0.06,0.561,0.18,0.779,0.33c0.221,0.15,0.381,0.35,0.511,0.6s0.19,0.55,0.19,0.91
		c0,0.55-0.15,0.97-0.42,1.3c-0.281,0.32-0.66,0.55-1.141,0.67l1.76,3.03h-1.01V32.09z M159.65,28.44h1.17
		c0.539,0,0.959-0.11,1.25-0.33c0.289-0.23,0.43-0.56,0.43-1.01c0-0.46-0.141-0.78-0.43-0.96c-0.291-0.19-0.7-0.28-1.25-0.28h-1.17
		V28.44z"/>
	<polygon fill="#FFFFFF" stroke="#FFFFFF" stroke-width="0.5" stroke-miterlimit="10" points="164.92,25.15 168.93,25.15 
		168.93,25.88 165.811,25.88 165.811,28.07 168.439,28.07 168.439,28.82 165.811,28.82 165.811,31.35 169.029,31.35 169.029,32.09 
		164.92,32.09 	"/>
</g>
<g>
	
		<rect x="117.57" y="34.66" fill="#FFFFFF" stroke="#FFFFFF" stroke-width="0.5" stroke-miterlimit="10" width="0.88" height="6.96"/>
	<path fill="#FFFFFF" stroke="#FFFFFF" stroke-width="0.5" stroke-miterlimit="10" d="M120.35,34.66h0.91l2.51,4.37l0.76,1.44h0.041
		c-0.021-0.35-0.041-0.71-0.07-1.1c-0.02-0.38-0.04-0.76-0.04-1.12v-3.59h0.84v6.96h-0.909l-2.531-4.38l-0.76-1.43h-0.039
		c0.029,0.35,0.049,0.71,0.08,1.08c0.029,0.36,0.039,0.73,0.039,1.1v3.63h-0.84v-6.96H120.35z"/>
	<polygon fill="#FFFFFF" stroke="#FFFFFF" stroke-width="0.5" stroke-miterlimit="10" points="128.65,35.4 126.55,35.4 
		126.55,34.66 131.641,34.66 131.641,35.4 129.54,35.4 129.54,41.6 128.65,41.6 	"/>
	<polygon fill="#FFFFFF" stroke="#FFFFFF" stroke-width="0.5" stroke-miterlimit="10" points="132.891,34.66 136.9,34.66 
		136.9,35.4 133.77,35.4 133.77,37.58 136.41,37.58 136.41,38.33 133.77,38.33 133.77,40.86 137,40.86 137,41.6 132.891,41.6 	"/>
	<path fill="#FFFFFF" stroke="#FFFFFF" stroke-width="0.5" stroke-miterlimit="10" d="M142.29,41.6l-1.681-2.94h-1.26v2.94h-0.879
		v-6.96h2.17c0.35,0,0.68,0.03,0.979,0.1c0.3,0.07,0.56,0.18,0.78,0.33c0.22,0.15,0.379,0.35,0.51,0.6
		c0.119,0.25,0.18,0.55,0.18,0.91c0,0.55-0.15,0.97-0.42,1.3c-0.279,0.32-0.66,0.55-1.13,0.67l1.76,3.03h-1.01V41.6z M139.35,37.95
		h1.17c0.541,0,0.961-0.11,1.25-0.33c0.291-0.23,0.44-0.56,0.44-1.01c0-0.46-0.149-0.78-0.44-0.96c-0.289-0.19-0.699-0.28-1.25-0.28
		h-1.17V37.95z"/>
	<path fill="#FFFFFF" stroke="#FFFFFF" stroke-width="0.5" stroke-miterlimit="10" d="M145.54,34.66l2.521,4.37l0.75,1.44h0.039
		c-0.02-0.35-0.039-0.71-0.07-1.1c-0.02-0.38-0.039-0.76-0.039-1.12v-3.59h0.84v6.96h-0.91l-2.52-4.38l-0.75-1.43h-0.041
		c0.031,0.35,0.051,0.71,0.08,1.08c0.031,0.36,0.041,0.73,0.041,1.1v3.63h-0.84v-6.96H145.54z"/>
	<path fill="#FFFFFF" stroke="#FFFFFF" stroke-width="0.5" stroke-miterlimit="10" d="M154.67,39.49h-2.54l-0.67,2.12h-0.899
		l2.35-6.96h0.99l2.35,6.96h-0.939L154.67,39.49z M154.439,38.78l-0.33-1.06c-0.129-0.39-0.25-0.78-0.359-1.16
		c-0.12-0.38-0.23-0.78-0.34-1.18h-0.04c-0.101,0.4-0.22,0.8-0.33,1.18s-0.229,0.78-0.36,1.16l-0.33,1.06H154.439z"/>
	<polygon fill="#FFFFFF" stroke="#FFFFFF" stroke-width="0.5" stroke-miterlimit="10" points="158.27,35.4 156.17,35.4 
		156.17,34.66 161.26,34.66 161.26,35.4 159.16,35.4 159.16,41.6 158.27,41.6 	"/>
	
		<rect x="162.51" y="34.66" fill="#FFFFFF" stroke="#FFFFFF" stroke-width="0.5" stroke-miterlimit="10" width="0.881" height="6.96"/>
	<path fill="#FFFFFF" stroke="#FFFFFF" stroke-width="0.5" stroke-miterlimit="10" d="M167.859,41.74c-0.439,0-0.84-0.08-1.199-0.26
		c-0.36-0.17-0.67-0.41-0.939-0.72c-0.261-0.31-0.461-0.69-0.611-1.15c-0.139-0.45-0.219-0.95-0.219-1.51s0.069-1.06,0.219-1.5
		c0.15-0.45,0.351-0.82,0.611-1.12c0.26-0.31,0.569-0.54,0.939-0.7c0.359-0.17,0.77-0.25,1.199-0.25c0.431,0,0.841,0.08,1.201,0.25
		c0.359,0.17,0.67,0.4,0.939,0.71c0.27,0.31,0.471,0.68,0.62,1.12c0.149,0.45,0.22,0.94,0.22,1.49c0,0.56-0.07,1.07-0.22,1.51
		c-0.14,0.45-0.351,0.83-0.62,1.15c-0.27,0.31-0.58,0.56-0.939,0.72C168.7,41.64,168.29,41.74,167.859,41.74 M167.859,40.96
		c0.311,0,0.591-0.06,0.841-0.2c0.25-0.13,0.46-0.33,0.649-0.58c0.18-0.25,0.32-0.55,0.41-0.9c0.1-0.35,0.15-0.75,0.15-1.18
		c0-0.43-0.051-0.82-0.15-1.17c-0.09-0.35-0.24-0.64-0.41-0.88c-0.18-0.24-0.39-0.42-0.649-0.56c-0.261-0.14-0.53-0.2-0.841-0.2
		c-0.31,0-0.59,0.06-0.84,0.2c-0.25,0.14-0.459,0.32-0.64,0.56c-0.19,0.24-0.319,0.54-0.42,0.88c-0.09,0.34-0.149,0.73-0.149,1.17
		s0.049,0.83,0.149,1.18c0.101,0.35,0.24,0.65,0.42,0.9c0.181,0.25,0.39,0.45,0.64,0.58C167.27,40.89,167.55,40.96,167.859,40.96"/>
	<path fill="#FFFFFF" stroke="#FFFFFF" stroke-width="0.5" stroke-miterlimit="10" d="M172.33,34.66h0.91l2.52,4.37l0.75,1.44h0.04
		c-0.021-0.35-0.04-0.71-0.069-1.1c-0.021-0.38-0.041-0.76-0.041-1.12v-3.59h0.84v6.96h-0.909l-2.53-4.38l-0.76-1.43h-0.04
		c0.03,0.35,0.05,0.71,0.08,1.08c0.03,0.36,0.04,0.73,0.04,1.1v3.63h-0.84v-6.96H172.33z"/>
	<path fill="#FFFFFF" stroke="#FFFFFF" stroke-width="0.5" stroke-miterlimit="10" d="M182.37,39.49h-2.54l-0.67,2.12h-0.9
		l2.35-6.96h0.99l2.351,6.96h-0.94L182.37,39.49z M182.15,38.78l-0.33-1.06c-0.12-0.39-0.25-0.78-0.36-1.16
		c-0.12-0.38-0.229-0.78-0.34-1.18h-0.04c-0.1,0.4-0.221,0.8-0.33,1.18s-0.23,0.78-0.359,1.16l-0.33,1.06H182.15z"/>
	<polygon fill="#FFFFFF" stroke="#FFFFFF" stroke-width="0.5" stroke-miterlimit="10" points="184.95,34.66 185.83,34.66 
		185.83,40.86 188.88,40.86 188.88,41.6 184.95,41.6 	"/>
</g>
<g>
	<polygon fill="#FFFFFF" stroke="#FFFFFF" stroke-width="0.5" stroke-miterlimit="10" points="117.57,44.17 121.58,44.17 
		121.58,44.92 118.45,44.92 118.45,47.27 121.1,47.27 121.1,48.01 118.45,48.01 118.45,51.13 117.57,51.13 	"/>
	<path fill="#FFFFFF" stroke="#FFFFFF" stroke-width="0.5" stroke-miterlimit="10" d="M125.26,51.25c-0.43,0-0.84-0.08-1.199-0.26
		c-0.36-0.17-0.67-0.41-0.94-0.729c-0.261-0.31-0.46-0.69-0.61-1.15c-0.14-0.45-0.22-0.95-0.22-1.51s0.069-1.06,0.22-1.5
		c0.15-0.45,0.35-0.82,0.61-1.12c0.26-0.31,0.569-0.54,0.94-0.7c0.359-0.17,0.77-0.25,1.199-0.25s0.84,0.08,1.2,0.25
		c0.36,0.17,0.681,0.4,0.94,0.71c0.27,0.31,0.459,0.68,0.619,1.12c0.15,0.45,0.221,0.94,0.221,1.49c0,0.56-0.07,1.07-0.221,1.51
		c-0.149,0.44-0.35,0.83-0.619,1.15c-0.26,0.31-0.58,0.56-0.94,0.729C126.1,51.17,125.7,51.25,125.26,51.25 M125.26,50.48
		c0.311,0,0.59-0.06,0.84-0.2c0.25-0.13,0.461-0.33,0.65-0.58c0.18-0.25,0.32-0.55,0.42-0.9c0.09-0.35,0.15-0.75,0.15-1.18
		c0-0.43-0.051-0.82-0.15-1.17c-0.09-0.34-0.24-0.64-0.42-0.88c-0.18-0.24-0.391-0.42-0.65-0.56c-0.25-0.13-0.529-0.2-0.84-0.2
		c-0.31,0-0.59,0.06-0.84,0.2c-0.25,0.13-0.47,0.32-0.641,0.56c-0.18,0.24-0.319,0.54-0.42,0.88c-0.1,0.34-0.149,0.74-0.149,1.17
		c0,0.43,0.05,0.83,0.149,1.18c0.101,0.35,0.24,0.65,0.42,0.9c0.171,0.25,0.391,0.45,0.641,0.58
		C124.67,50.42,124.95,50.48,125.26,50.48"/>
	<path fill="#FFFFFF" stroke="#FFFFFF" stroke-width="0.5" stroke-miterlimit="10" d="M129.7,44.17h0.88v4.1
		c0,0.41,0.04,0.77,0.12,1.04c0.079,0.28,0.2,0.51,0.34,0.68c0.149,0.17,0.31,0.29,0.521,0.36c0.199,0.07,0.41,0.11,0.64,0.11
		s0.45-0.04,0.64-0.11c0.2-0.07,0.37-0.2,0.52-0.36c0.15-0.17,0.271-0.39,0.351-0.68c0.08-0.28,0.13-0.63,0.13-1.04v-4.1h0.85v4.08
		c0,0.56-0.06,1.02-0.189,1.41c-0.12,0.38-0.3,0.69-0.529,0.93c-0.221,0.24-0.49,0.4-0.791,0.51c-0.3,0.11-0.63,0.15-0.979,0.15
		c-0.351,0-0.681-0.05-0.99-0.15s-0.569-0.27-0.8-0.51c-0.221-0.24-0.391-0.55-0.53-0.93c-0.14-0.38-0.19-0.85-0.19-1.41v-4.08
		H129.7z"/>
	<path fill="#FFFFFF" stroke="#FFFFFF" stroke-width="0.5" stroke-miterlimit="10" d="M136.57,44.17h0.91l2.52,4.37l0.75,1.44h0.04
		c-0.021-0.35-0.04-0.72-0.069-1.1c-0.021-0.38-0.041-0.76-0.041-1.12v-3.59h0.84v6.96h-0.91l-2.529-4.38l-0.75-1.43h-0.04
		c0.03,0.35,0.05,0.71,0.08,1.08c0.021,0.36,0.04,0.73,0.04,1.1v3.63h-0.84V44.17L136.57,44.17z"/>
	<path fill="#FFFFFF" stroke="#FFFFFF" stroke-width="0.5" stroke-miterlimit="10" d="M143.43,44.17h1.74
		c1.08,0,1.891,0.3,2.439,0.89c0.561,0.59,0.841,1.45,0.841,2.56c0,0.55-0.07,1.05-0.21,1.48c-0.141,0.44-0.35,0.8-0.62,1.1
		c-0.28,0.3-0.61,0.53-1.011,0.69c-0.399,0.16-0.869,0.24-1.389,0.24h-1.781v-6.96H143.43z M145.1,50.41
		c0.811,0,1.42-0.25,1.83-0.73c0.4-0.49,0.61-1.17,0.61-2.06c0-0.88-0.21-1.55-0.61-2.03c-0.4-0.47-1.01-0.7-1.83-0.7h-0.8v5.51h0.8
		V50.41z"/>
	<path fill="#FFFFFF" stroke="#FFFFFF" stroke-width="0.5" stroke-miterlimit="10" d="M153.02,49.01h-2.539l-0.66,2.11h-0.9
		l2.35-6.96h0.99l2.35,6.96h-0.939L153.02,49.01z M152.8,48.29l-0.329-1.06c-0.121-0.39-0.25-0.78-0.361-1.16
		c-0.109-0.38-0.229-0.78-0.34-1.18h-0.039c-0.101,0.4-0.221,0.8-0.33,1.18c-0.121,0.38-0.23,0.78-0.36,1.16l-0.33,1.06H152.8z"/>
	<polygon fill="#FFFFFF" stroke="#FFFFFF" stroke-width="0.5" stroke-miterlimit="10" points="156.62,44.92 154.52,44.92 
		154.52,44.17 159.609,44.17 159.609,44.92 157.51,44.92 157.51,51.12 156.62,51.12 	"/>
	
		<rect x="160.859" y="44.17" fill="#FFFFFF" stroke="#FFFFFF" stroke-width="0.5" stroke-miterlimit="10" width="0.881" height="6.96"/>
	<path fill="#FFFFFF" stroke="#FFFFFF" stroke-width="0.5" stroke-miterlimit="10" d="M166.2,51.25c-0.44,0-0.841-0.08-1.2-0.26
		c-0.359-0.17-0.67-0.41-0.939-0.729c-0.261-0.31-0.471-0.69-0.61-1.15c-0.15-0.45-0.22-0.95-0.22-1.51s0.069-1.06,0.22-1.5
		c0.14-0.45,0.35-0.82,0.61-1.12c0.26-0.31,0.569-0.54,0.939-0.7c0.359-0.17,0.76-0.25,1.2-0.25s0.84,0.08,1.2,0.25
		c0.359,0.17,0.68,0.4,0.939,0.71c0.27,0.31,0.471,0.68,0.62,1.12c0.14,0.45,0.22,0.94,0.22,1.49c0,0.56-0.07,1.07-0.22,1.51
		c-0.149,0.45-0.351,0.83-0.62,1.15c-0.26,0.31-0.58,0.56-0.939,0.729C167.05,51.17,166.65,51.25,166.2,51.25 M166.2,50.48
		c0.31,0,0.59-0.06,0.84-0.2c0.25-0.13,0.47-0.33,0.649-0.58c0.181-0.25,0.32-0.55,0.42-0.9c0.091-0.35,0.141-0.75,0.141-1.18
		c0-0.43-0.05-0.82-0.141-1.17c-0.1-0.34-0.239-0.64-0.42-0.88c-0.18-0.24-0.39-0.42-0.649-0.56c-0.25-0.13-0.53-0.2-0.84-0.2
		s-0.591,0.06-0.841,0.2c-0.25,0.13-0.469,0.32-0.649,0.56c-0.19,0.24-0.319,0.54-0.42,0.88c-0.09,0.34-0.14,0.74-0.14,1.17
		c0,0.43,0.05,0.83,0.14,1.18c0.101,0.35,0.239,0.65,0.42,0.9s0.39,0.45,0.649,0.58C165.609,50.42,165.891,50.48,166.2,50.48"/>
	<path fill="#FFFFFF" stroke="#FFFFFF" stroke-width="0.5" stroke-miterlimit="10" d="M170.689,44.17h0.91l2.521,4.37l0.76,1.44
		h0.04c-0.02-0.35-0.04-0.72-0.061-1.1c-0.029-0.38-0.039-0.76-0.039-1.12v-3.59h0.84v6.96h-0.91l-2.529-4.38l-0.75-1.43h-0.041
		c0.03,0.35,0.051,0.71,0.08,1.08c0.03,0.37,0.04,0.73,0.04,1.1v3.63h-0.84v-6.96H170.689z"/>
</g>
</svg>
